<?xml version="1.0" encoding="UTF-8"?>
<svg id="Layer_1" xmlns="http://www.w3.org/2000/svg" version="1.1" viewBox="0 0 1390.71 262.54">
  <!-- Generator: Adobe Illustrator 30.2.1, SVG Export Plug-In . SVG Version: 2.1.1 Build 1)  -->
  <defs>
    <style>
      .st0 {
        fill: #231f20;
      }

      .st1 {
        stroke: #f68c45;
        stroke-width: 1.08px;
      }

      .st1, .st2, .st3 {
        fill: none;
        stroke-miterlimit: 10;
      }

      .st2 {
        stroke-width: 1.65px;
      }

      .st2, .st3 {
        stroke: #2e6bae;
      }

      .st3 {
        stroke-width: 1.13px;
      }
    </style>
  </defs>
  <line class="st2" x1="3.09" y1="190.28" x2="721.08" y2="190.28"/>
  <line class="st3" x1="4.31" y1="69.83" x2="721.02" y2="69.83"/>
  <line class="st3" x1="4.17" y1="243.83" x2="720.88" y2="243.83"/>
  <line class="st1" x1="742.53" y1="190.28" x2="1390.97" y2="190.28"/>
  <line class="st1" x1="742.27" y1="64.76" x2="1390.71" y2="64.76"/>
  <line class="st1" x1="742.27" y1="15.7" x2="1390.71" y2="15.7"/>
  <line class="st1" x1="743.69" y1="234.5" x2="1392.13" y2="234.5"/>
  <line class="st1" x1="742.27" y1="22.87" x2="1390.71" y2="22.87"/>
  <line class="st3" x1="4.63" y1="19.82" x2="721.34" y2="19.82"/>
  <line class="st3" x1="4.37" y1="31.98" x2="721.08" y2="31.98"/>
  <g>
    <path class="st0" d="M884.83,190.28h-25.06v-74.45h-76.83v74.45h-25.05V23.25h25.05v67.53h76.83V23.25h25.06v167.03Z"/>
    <path class="st0" d="M1023.7,190.28h-29.11l-11.93-21.71c-5.01-9.07-10.74-20.52-13.12-25.29-2.15,4.77-8.83,16.94-13.6,25.53l-12.17,21.48h-27.68l39.37-64.9-36.75-60.37h28.39l9.78,17.66c5.01,9.07,10.98,20.28,13.12,25.05,2.62-4.77,8.59-16.7,13.36-25.53l9.54-17.18h28.16l-36.99,60.37,39.61,64.9Z"/>
    <path class="st0" d="M1156.61,129.67c0,42.95-23.38,63.23-49.39,63.23-12.65,0-24.58-6.68-31.5-14.32v45.1l-24.34,12.65V65.01h24.34v11.93c9.07-8.35,19.57-14.56,32.69-14.56,26.96,0,48.2,19.57,48.2,67.29ZM1132.03,130.39c0-31.5-10.02-45.34-28.16-45.34-11.69,0-21.95,7.88-28.4,15.99v52.73c5.49,7.4,16.94,16.46,29.35,16.46,17.66,0,27.2-13.36,27.2-39.85Z"/>
    <path class="st0" d="M1248.95,165.47l-2.86,21.71c-5.96,3.34-14.32,5.73-24.1,5.73-17.42,0-28.16-10.74-28.16-33.17v-72.3h-17.9v-22.43h17.9V29.22l24.1-12.89v48.68h31.02v22.43h-31.02v68.01c0,11.69,3.82,15.03,12.88,15.03,6.44,0,13.6-2.39,18.14-5.01Z"/>
    <path class="st0" d="M1384.25,65.01l-63,169.42h-26.01l18.13-46.53-46.05-122.89h26.96l20.52,61.32c3.58,10.98,9.54,29.59,10.98,36.51,2.15-7.4,7.4-25.29,11.21-36.03l21.24-61.8h26.01Z"/>
  </g>
  <g>
    <path class="st0" d="M135.48,19.91h19.81v75.88h73.02V19.91h19.81v170.37h-19.81v-77.79h-73.02v77.79h-19.81V19.91Z"/>
    <path class="st0" d="M281.76,70.5h21.48l26.96,43.91,26.73-43.91h20.76l-38.18,59.18,37.46,60.61h-21.48l-28.16-45.81-27.92,45.81h-20.76l39.13-61.32-36.03-58.46Z"/>
    <path class="st0" d="M405.12,70.5h14.79l1.91,10.02c8.11-8.59,19.09-12.41,34.84-12.41,31.02,0,45.1,16.7,45.1,53.21v18.13c0,36.27-14.08,52.97-45.1,52.97-14.08,0-24.1-3.34-32.69-10.98v62.52h-18.85V70.5ZM482.91,122.51c0-26.25-9.54-38.66-29.11-38.66s-29.83,12.17-29.83,36.75v19.57c0,24.34,10.02,36.51,29.83,36.51s29.11-12.41,29.11-38.42v-15.75Z"/>
    <path class="st0" d="M529.19,86.24v-15.75h14.56l.95-38.42h17.9v38.42h23.62v15.75h-23.62v66.1c0,16.94,4.77,22.19,20.28,21.95h4.06v15.99h-4.3c-31.26,0-38.89-7.64-38.89-39.85v-64.19h-14.56Z"/>
    <path class="st0" d="M611.04,70.5h19.09l35.08,98.31,31.26-98.31h19.09l-47.01,139.11c-10.98,30.3-17.42,35.32-48.44,35.55v-15.99c17.9,0,22.19-3.1,29.11-21.48l5.97-17.66-44.14-119.55Z"/>
  </g>
  <g>
    <path class="st0" d="M14.46,12.4c-.11-.35-.17-.4-.65-.4h-2.38c-.39,0-.49.05-.6.38l-.55,1.68c-.24.72-.35,1.15-.35,1.33,0,.19.08.29.46.32l.52.05c.11.08.11.34-.03.4-.41-.03-.9-.03-1.64-.05-.52,0-1.09.03-1.51.05-.09-.06-.13-.32-.03-.4l.52-.05c.38-.03.72-.21.94-.78.28-.74.72-1.78,1.39-3.57l1.61-4.32c.22-.58.31-.88.27-1.14.38-.11.65-.4.82-.61.09,0,.2.03.24.14.2.71.46,1.44.69,2.15l2.16,6.43c.46,1.38.66,1.62,1.34,1.7l.42.05c.11.08.08.34,0,.4-.65-.03-1.2-.05-1.91-.05-.76,0-1.35.03-1.81.05-.13-.06-.14-.32-.03-.4l.46-.05c.33-.03.55-.13.55-.29,0-.18-.08-.46-.2-.85l-.69-2.18ZM11.35,10.98c-.13.37-.11.38.33.38h1.94c.46,0,.49-.06.35-.5l-.85-2.61c-.13-.38-.27-.82-.36-1.01h-.03c-.05.08-.2.46-.38.94l-.99,2.79Z"/>
    <path class="st0" d="M22.18,9.87c.14.35.25.86.25,1.3-.06.11-.3.14-.38.05-.27-.7-.74-1.17-1.39-1.17s-1.01.4-1.01.98c0,.66.66,1.01,1.21,1.33.83.48,1.61,1.02,1.61,2.16,0,1.22-1.1,1.82-2.27,1.82-.74,0-1.29-.16-1.68-.48-.13-.3-.22-1.09-.19-1.62.08-.1.28-.11.36-.02.27.88.77,1.65,1.67,1.65.57,0,1.06-.34,1.06-1.02,0-.74-.63-1.14-1.21-1.47-.91-.53-1.56-1.09-1.56-1.97,0-1.17.94-1.82,2.14-1.82.66,0,1.24.16,1.39.29Z"/>
    <path class="st0" d="M28.73,9.86c.13.11.24.37.24.64,0,.29-.16.59-.35.59-.08,0-.16-.03-.22-.11-.35-.43-.93-.85-1.58-.85-1.1,0-2.17.88-2.17,2.58,0,1.25.85,2.74,2.54,2.74.91,0,1.39-.42,1.75-.96.13-.03.27.08.28.22-.54,1.18-1.72,1.63-2.63,1.63-.83,0-1.61-.27-2.16-.82-.55-.54-.91-1.33-.91-2.37,0-1.73,1.2-3.57,3.81-3.57.36,0,.98.08,1.4.27Z"/>
    <path class="st0" d="M31.3,12.02c-.41,0-.43.03-.43.43,0,1.62.93,2.99,2.61,2.99.52,0,.96-.16,1.45-.79.16-.05.27.05.28.19-.52,1.09-1.65,1.49-2.47,1.49-1.02,0-1.83-.45-2.28-1.06-.47-.62-.66-1.38-.66-2.08,0-1.97,1.28-3.62,3.17-3.62,1.35,0,2.24.94,2.24,1.9,0,.22-.03.35-.06.42-.05.1-.27.11-.93.11h-2.91ZM32.27,11.54c1.17,0,1.51-.06,1.64-.16.05-.03.09-.1.09-.3,0-.45-.3-1.01-1.21-1.01s-1.73.86-1.75,1.39c0,.03,0,.08.11.08h1.12Z"/>
    <path class="st0" d="M37.03,11.52c0-.62,0-.7-.42-.99l-.14-.1c-.06-.06-.06-.24.02-.29.36-.13,1.26-.54,1.57-.78.06,0,.14.03.17.11-.03.37-.03.61-.03.75,0,.1.06.18.17.18.66-.42,1.4-.82,2.2-.82,1.31,0,1.84.91,1.84,1.98v2.75c0,1.15.03,1.31.6,1.39l.35.05c.11.08.08.35-.03.4-.47-.03-.93-.05-1.48-.05s-1.04.02-1.46.05c-.11-.05-.14-.32-.03-.4l.3-.05c.58-.1.6-.24.6-1.39v-2.38c0-.91-.41-1.58-1.48-1.58-.6,0-1.12.26-1.34.56-.2.27-.24.5-.24.96v2.45c0,1.15.03,1.3.6,1.39l.28.05c.11.08.08.35-.03.4-.42-.03-.88-.05-1.43-.05s-1.04.02-1.48.05c-.11-.05-.14-.32-.03-.4l.33-.05c.58-.08.6-.24.6-1.39v-2.8Z"/>
    <path class="st0" d="M50.43,13.78c0,1.26.02,1.86.46,1.86.17,0,.44-.08.68-.16.11.03.13.43-.02.51-.66.1-1.64.34-2.08.51-.09,0-.17-.05-.17-.13v-.27c0-.24,0-.43-.03-.5h-.06c-.69.48-1.23.74-1.98.74-1.75,0-2.91-1.39-2.91-3.07,0-2.24,1.67-3.68,3.81-3.68.54,0,.88.08,1.06.14.08,0,.09-.1.09-.22v-2.42c0-.94-.02-1.04-.49-1.33l-.16-.1c-.08-.05-.08-.27,0-.32.39-.13,1.13-.37,1.7-.67.06,0,.13.03.16.1-.02.48-.05,1.28-.05,1.98v7.03ZM49.27,11.38c0-.32-.06-.46-.17-.62-.24-.34-.71-.67-1.32-.67-1.43,0-2.17,1.26-2.17,2.66s.8,2.83,2.35,2.83c.43,0,.96-.19,1.21-.45.09-.1.11-.34.11-.59v-3.15Z"/>
    <path class="st0" d="M53.82,12.02c-.41,0-.43.03-.43.43,0,1.62.93,2.99,2.61,2.99.52,0,.96-.16,1.45-.79.16-.05.27.05.28.19-.52,1.09-1.65,1.49-2.47,1.49-1.02,0-1.83-.45-2.28-1.06-.47-.62-.66-1.38-.66-2.08,0-1.97,1.28-3.62,3.17-3.62,1.35,0,2.24.94,2.24,1.9,0,.22-.03.35-.06.42-.05.1-.27.11-.93.11h-2.91ZM54.79,11.54c1.17,0,1.51-.06,1.64-.16.05-.03.09-.1.09-.3,0-.45-.3-1.01-1.21-1.01s-1.73.86-1.75,1.39c0,.03,0,.08.11.08h1.12Z"/>
    <path class="st0" d="M59.55,11.52c0-.62,0-.7-.42-.99l-.14-.1c-.06-.06-.06-.24.02-.29.36-.13,1.2-.54,1.59-.78.08.02.13.05.13.11v.93c0,.08.02.13.05.14.55-.46,1.15-.96,1.73-.96.39,0,.71.26.71.64,0,.53-.42.74-.68.74-.16,0-.24-.05-.35-.11-.24-.16-.47-.26-.69-.26-.25,0-.44.14-.57.32-.16.22-.2.69-.2,1.23v2.18c0,1.15.03,1.34.63,1.39l.57.05c.11.08.08.35-.03.4-.74-.03-1.2-.05-1.75-.05s-1.04.02-1.45.05c-.11-.05-.14-.32-.03-.4l.3-.05c.58-.1.6-.24.6-1.39v-2.8Z"/>
    <path class="st0" d="M69.72,14.32c0,1.15.03,1.31.6,1.39l.38.05c.11.08.08.35-.03.4-.52-.03-.98-.05-1.53-.05s-1.04.02-1.51.05c-.11-.05-.14-.32-.03-.4l.36-.05c.58-.08.6-.24.6-1.39v-7.23c0-.94-.02-1.04-.49-1.33l-.16-.1c-.08-.05-.08-.27,0-.32.39-.13,1.13-.37,1.7-.67.06,0,.13.03.16.1-.02.48-.05,1.28-.05,1.98v7.57Z"/>
    <path class="st0" d="M72.6,11.52c0-.62,0-.7-.43-.99l-.14-.1c-.06-.06-.06-.24.02-.29.36-.13,1.26-.54,1.62-.78.08,0,.14.03.16.1-.03.56-.06,1.33-.06,1.99v2.88c0,1.15.03,1.31.6,1.39l.33.05c.11.08.08.35-.03.4-.47-.03-.93-.05-1.48-.05s-1.04.02-1.48.05c-.11-.05-.14-.32-.03-.4l.33-.05c.58-.08.6-.24.6-1.39v-2.8ZM73.91,6.96c0,.58-.39.83-.83.83-.49,0-.8-.37-.8-.8,0-.53.38-.86.85-.86s.79.38.79.83Z"/>
    <path class="st0" d="M76.65,11.52c0-.62,0-.7-.43-.99l-.14-.1c-.06-.06-.06-.24.02-.29.36-.13,1.26-.54,1.57-.78.06,0,.14.03.17.11-.03.37-.03.61-.03.75,0,.1.06.18.17.18.66-.42,1.4-.82,2.2-.82,1.31,0,1.84.91,1.84,1.98v2.75c0,1.15.03,1.31.6,1.39l.35.05c.11.08.08.35-.03.4-.47-.03-.93-.05-1.48-.05s-1.04.02-1.46.05c-.11-.05-.14-.32-.03-.4l.3-.05c.58-.1.6-.24.6-1.39v-2.38c0-.91-.41-1.58-1.48-1.58-.6,0-1.12.26-1.34.56-.21.27-.24.5-.24.96v2.45c0,1.15.03,1.3.6,1.39l.28.05c.11.08.08.35-.03.4-.43-.03-.88-.05-1.43-.05s-1.04.02-1.48.05c-.11-.05-.14-.32-.03-.4l.33-.05c.58-.08.6-.24.6-1.39v-2.8Z"/>
    <path class="st0" d="M85.42,12.02c-.41,0-.42.03-.42.43,0,1.62.93,2.99,2.61,2.99.52,0,.96-.16,1.45-.79.16-.05.27.05.28.19-.52,1.09-1.65,1.49-2.47,1.49-1.02,0-1.83-.45-2.28-1.06-.47-.62-.66-1.38-.66-2.08,0-1.97,1.28-3.62,3.17-3.62,1.35,0,2.24.94,2.24,1.9,0,.22-.03.35-.06.42-.05.1-.27.11-.93.11h-2.91ZM86.4,11.54c1.17,0,1.51-.06,1.64-.16.05-.03.09-.1.09-.3,0-.45-.3-1.01-1.21-1.01s-1.73.86-1.75,1.39c0,.03,0,.08.11.08h1.12Z"/>
  </g>
  <g>
    <path class="st0" d="M10.33,35.73c1.15-.91,2.61-1.36,4.25-1.36.85,0,2.05.18,2.79.38.19.05.3.08.44.06.02.37.09,1.38.22,2.35-.08.11-.31.13-.43.03-.24-1.09-.94-2.34-3.23-2.34-2.41,0-4.46,1.55-4.46,4.87s2.09,5.22,4.68,5.22c2.03,0,2.93-1.34,3.29-2.29.11-.08.35-.05.41.06-.11.83-.52,1.89-.76,2.19-.19.03-.38.1-.55.16-.35.13-1.48.37-2.49.37-1.42,0-2.77-.29-3.92-1.07-1.26-.88-2.24-2.34-2.24-4.4,0-1.78.79-3.3,1.98-4.24Z"/>
    <path class="st0" d="M22.34,41.87c.24-.08.27-.22.27-.46l.02-.74c.02-.59-.17-1.39-1.15-1.39-.44,0-.98.22-1.01.72-.02.26-.03.45-.16.54-.24.19-.66.3-.9.3-.14,0-.22-.08-.22-.22,0-.83,1.78-1.97,2.93-1.97s1.69.67,1.64,1.87l-.09,2.79c-.03.74.11,1.39.72,1.39.16,0,.3-.05.39-.1.08-.05.16-.11.2-.11.06,0,.11.1.11.21,0,.08-.55.7-1.32.7-.38,0-.76-.14-1.02-.5-.06-.1-.16-.22-.25-.22-.11,0-.3.14-.61.32-.35.19-.69.4-1.13.4s-.83-.13-1.1-.37c-.3-.27-.49-.67-.49-1.12,0-.62.3-.99,1.31-1.36l1.87-.69ZM21.37,44.69c.31,0,.8-.24.96-.4.19-.19.19-.42.2-.75l.03-.94c0-.18-.06-.21-.16-.21s-.36.06-.65.16c-.93.32-1.39.56-1.39,1.18,0,.27.19.96.99.96Z"/>
    <path class="st0" d="M26.31,40.59c0-.62,0-.7-.43-.99l-.14-.1c-.06-.06-.06-.24.02-.29.41-.18,1.15-.56,1.56-.86.09,0,.16.03.19.11-.03.29-.06.53-.06.74,0,.11.03.21.14.21.2-.1,1.2-.75,2.2-.75,1.59,0,2.61,1.31,2.61,2.93,0,2.22-1.61,3.83-3.84,3.83-.28,0-.72-.03-.87-.06-.14.03-.22.11-.22.45v1.68c0,1.14.03,1.28.6,1.36l.61.08c.11.08.08.35-.03.4-.76-.03-1.21-.05-1.76-.05s-1.04.02-1.48.05c-.11-.05-.14-.32-.03-.4l.33-.05c.58-.08.6-.24.6-1.39v-6.88ZM27.48,43.57c0,.51.16.7.47.96.31.24.8.35,1.13.35,1.29,0,2.05-1.22,2.05-2.88,0-1.28-.71-2.58-2.13-2.58-.68,0-1.17.26-1.34.45-.14.18-.19.42-.19.94v2.75Z"/>
    <path class="st0" d="M39.45,43.39c0,1.15.03,1.31.6,1.39l.38.05c.11.08.08.35-.03.4-.52-.03-.98-.05-1.53-.05s-1.04.02-1.51.05c-.11-.05-.14-.32-.03-.4l.36-.05c.58-.08.6-.24.6-1.39v-7.23c0-.94-.02-1.04-.49-1.33l-.16-.1c-.08-.05-.08-.27,0-.32.39-.13,1.13-.37,1.7-.67.06,0,.13.03.16.1-.02.48-.05,1.28-.05,1.98v7.57Z"/>
    <path class="st0" d="M42.33,40.59c0-.62,0-.7-.43-.99l-.14-.1c-.06-.06-.06-.24.02-.29.36-.13,1.26-.54,1.62-.78.08,0,.14.03.16.1-.03.56-.06,1.33-.06,1.99v2.88c0,1.15.03,1.31.6,1.39l.33.05c.11.08.08.35-.03.4-.47-.03-.93-.05-1.48-.05s-1.04.02-1.48.05c-.11-.05-.14-.32-.03-.4l.33-.05c.58-.08.6-.24.6-1.39v-2.8ZM43.63,36.03c0,.58-.39.83-.83.83-.49,0-.8-.37-.8-.8,0-.53.38-.86.85-.86s.79.38.79.83Z"/>
    <path class="st0" d="M46.37,40.59c0-.62,0-.7-.43-.99l-.14-.1c-.06-.06-.06-.24.02-.29.36-.13,1.26-.54,1.57-.78.06,0,.14.03.17.11-.03.37-.03.61-.03.75,0,.1.06.18.17.18.66-.42,1.4-.82,2.2-.82,1.31,0,1.84.91,1.84,1.98v2.75c0,1.15.03,1.31.6,1.39l.35.05c.11.08.08.35-.03.4-.47-.03-.93-.05-1.48-.05s-1.04.02-1.46.05c-.11-.05-.14-.32-.03-.4l.3-.05c.58-.1.6-.24.6-1.39v-2.38c0-.91-.41-1.58-1.48-1.58-.6,0-1.12.26-1.34.56-.21.27-.24.5-.24.96v2.45c0,1.15.03,1.3.6,1.39l.28.05c.11.08.08.35-.03.4-.43-.03-.88-.05-1.43-.05s-1.04.02-1.48.05c-.11-.05-.14-.32-.03-.4l.33-.05c.58-.08.6-.24.6-1.39v-2.8Z"/>
    <path class="st0" d="M55.14,41.09c-.41,0-.42.03-.42.43,0,1.62.93,2.99,2.61,2.99.52,0,.96-.16,1.45-.79.16-.05.27.05.28.19-.52,1.09-1.65,1.49-2.47,1.49-1.02,0-1.83-.45-2.28-1.06-.47-.62-.66-1.38-.66-2.08,0-1.97,1.28-3.62,3.17-3.62,1.35,0,2.24.94,2.24,1.9,0,.22-.03.35-.06.42-.05.1-.27.11-.93.11h-2.91ZM56.12,40.61c1.17,0,1.51-.06,1.64-.16.05-.03.09-.1.09-.3,0-.45-.3-1.01-1.21-1.01s-1.73.86-1.75,1.39c0,.03,0,.08.11.08h1.12Z"/>
  </g>
  <g>
    <path class="st0" d="M18.32,82.76c.11.1.09.32-.02.4-.72-.03-1.34-.05-1.98-.05-.71,0-1.46.02-2.03.05-.09-.1-.11-.3-.03-.4l.46-.05c.36-.03.54-.1.54-.21,0-.1-.03-.26-.35-.7-.68-.98-1.56-2.3-2.25-3.22-.43.54-1.59,2.29-2.22,3.41-.13.22-.2.4-.2.51,0,.1.14.18.46.21l.43.05c.11.1.08.32-.02.4-.57-.03-1.17-.05-1.7-.05s-1.12.02-1.62.05c-.14-.06-.16-.3-.05-.4l.39-.05c.85-.1,1.4-.78,1.87-1.42.19-.26,1.28-1.66,2.14-2.94.11-.16.14-.27.14-.32s-.06-.19-.19-.37l-2.36-3.44c-.52-.75-.82-1.07-1.37-1.2l-.5-.11c-.08-.1-.06-.35.03-.4.74.03,1.26.05,1.83.05.61,0,1.32-.02,1.78-.05.11.05.13.29.03.4l-.44.03c-.28.02-.47.11-.47.21,0,.14.16.42.47.88.52.77,1.45,2.21,2.02,2.93.41-.51,1.83-2.79,2.11-3.27.13-.21.22-.42.22-.53,0-.08-.24-.18-.52-.21l-.41-.05c-.09-.11-.09-.34.03-.4.55.03,1.06.05,1.67.05.58,0,1.02-.02,1.51-.05.11.08.13.3.03.4l-.38.03c-.47.05-1.04.53-1.68,1.36-.61.8-1.29,1.76-2.05,2.83-.09.14-.16.26-.16.3s.02.16.21.42l2.66,3.81c.54.75.94,1.01,1.43,1.06l.55.05Z"/>
    <path class="st0" d="M22.26,79.16c.17.11.24.3.24.51,0,.16-.05.3-.13.4l-3.67.35c-.17-.14-.24-.35-.24-.51s.05-.3.13-.4l3.67-.35Z"/>
    <path class="st0" d="M24.38,74.08c0-.94-.02-1.04-.49-1.33l-.16-.1c-.08-.05-.08-.27,0-.32.39-.13,1.13-.37,1.7-.67.06,0,.13.03.16.1-.02.48-.05,1.28-.05,1.98v3.36c0,.14.02.27.06.3.57-.45,1.32-.83,2.13-.83,1.5,0,2.03.94,2.03,2.06v2.67c0,1.15.03,1.33.6,1.39l.43.05c.11.08.08.35-.03.4-.57-.03-1.02-.05-1.57-.05s-1.04.02-1.46.05c-.11-.05-.14-.32-.03-.4l.32-.05c.58-.1.6-.24.6-1.39v-2.29c0-1.02-.49-1.71-1.5-1.71-.54,0-.94.19-1.23.43-.28.24-.33.32-.33.88v2.69c0,1.15.03,1.31.6,1.39l.33.05c.11.06.08.35-.03.4-.47-.03-.93-.05-1.48-.05s-1.04.02-1.54.05c-.11-.05-.14-.32-.03-.4l.39-.05c.58-.06.6-.24.6-1.39v-7.23Z"/>
    <path class="st0" d="M33.15,79.01c-.41,0-.42.03-.42.43,0,1.62.93,2.99,2.61,2.99.52,0,.96-.16,1.45-.79.16-.05.27.05.28.19-.52,1.09-1.65,1.49-2.47,1.49-1.02,0-1.83-.45-2.28-1.06-.47-.62-.66-1.38-.66-2.08,0-1.97,1.28-3.62,3.17-3.62,1.35,0,2.24.94,2.24,1.9,0,.22-.03.35-.06.42-.05.1-.27.11-.93.11h-2.91ZM34.13,78.53c1.17,0,1.51-.06,1.64-.16.05-.03.09-.1.09-.3,0-.45-.3-1.01-1.21-1.01s-1.73.86-1.75,1.39c0,.03,0,.08.11.08h1.12Z"/>
    <path class="st0" d="M38.89,78.52c0-.62,0-.7-.42-.99l-.14-.1c-.06-.06-.06-.24.02-.29.36-.13,1.26-.54,1.62-.78.08,0,.14.03.16.1-.03.56-.06,1.33-.06,1.99v2.88c0,1.15.03,1.31.6,1.39l.33.05c.11.08.08.35-.03.4-.47-.03-.93-.05-1.48-.05s-1.04.02-1.48.05c-.11-.05-.14-.32-.03-.4l.33-.05c.58-.08.6-.24.6-1.39v-2.8ZM40.19,73.95c0,.58-.39.83-.83.83-.49,0-.8-.37-.8-.8,0-.53.38-.86.85-.86s.79.38.79.83Z"/>
    <path class="st0" d="M48.41,77.16c.17.08.14.62-.09.66h-1.13c.03.27.03.54.03.82,0,1.1-.65,2.54-2.65,2.54-.28,0-.5-.03-.69-.05-.19.11-.69.42-.69.88,0,.37.36.67,1.1.67.54,0,1.18-.05,1.87-.05.88,0,2.2.16,2.2,1.76,0,1.75-1.87,3.03-3.92,3.03-1.94,0-2.61-1.06-2.61-1.86,0-.26.06-.46.17-.59.27-.29.71-.7,1.07-1.07.14-.14.27-.29.13-.38-.61-.16-1.15-.7-1.15-1.26,0-.08.06-.14.24-.27.27-.18.57-.45.83-.74.08-.1.16-.22.16-.3-.54-.29-1.18-.91-1.18-1.94,0-1.38,1.17-2.42,2.57-2.42.6,0,1.15.16,1.51.32.5.22.61.26.96.26h1.28ZM45.12,83.62c-.5,0-1.13.03-1.35.18-.38.24-.76.74-.76,1.34,0,.86.68,1.58,2.11,1.58s2.33-.8,2.33-1.71c0-.98-.66-1.39-1.79-1.39h-.54ZM46.1,79.04c0-1.09-.44-2-1.4-2-.76,0-1.32.7-1.32,1.79s.68,1.87,1.43,1.87c.85,0,1.29-.69,1.29-1.66Z"/>
    <path class="st0" d="M49.8,74.08c0-.94-.02-1.04-.49-1.33l-.16-.1c-.08-.05-.08-.27,0-.32.39-.13,1.13-.37,1.7-.67.06,0,.13.03.16.1-.02.48-.05,1.28-.05,1.98v3.36c0,.14.02.27.06.3.57-.45,1.32-.83,2.13-.83,1.5,0,2.03.94,2.03,2.06v2.67c0,1.15.03,1.33.6,1.39l.43.05c.11.08.08.35-.03.4-.57-.03-1.02-.05-1.57-.05s-1.04.02-1.46.05c-.11-.05-.14-.32-.03-.4l.31-.05c.58-.1.6-.24.6-1.39v-2.29c0-1.02-.49-1.71-1.5-1.71-.54,0-.94.19-1.23.43-.28.24-.33.32-.33.88v2.69c0,1.15.03,1.31.6,1.39l.33.05c.11.06.08.35-.03.4-.47-.03-.93-.05-1.48-.05s-1.04.02-1.54.05c-.11-.05-.14-.32-.03-.4l.39-.05c.58-.06.6-.24.6-1.39v-7.23Z"/>
    <path class="st0" d="M59.36,77.48c-.27,0-.28.05-.28.38v2.99c0,.93.11,1.78,1.15,1.78.16,0,.3-.03.43-.08.14-.05.35-.22.39-.22.13,0,.19.18.16.27-.28.34-.85.74-1.65.74-1.35,0-1.64-.77-1.64-1.73v-3.67c0-.43-.02-.46-.33-.46h-.44c-.09-.06-.11-.24-.05-.34.46-.14.85-.35,1.01-.5.2-.19.5-.62.66-.94.08-.03.27-.03.33.08v.72c0,.29.02.3.28.3h1.75c.19.14.16.58.02.67h-1.78Z"/>
  </g>
  <g>
    <path class="st0" d="M9.67,195.08c0-1.18-.06-1.49-.77-1.55l-.5-.05c-.13-.1-.11-.34.02-.4.85-.08,1.92-.13,3.39-.13.99,0,1.94.08,2.65.45.68.34,1.2.98,1.2,2,0,1.15-.66,1.74-1.61,2.19,0,.16.13.21.3.24.85.16,2.11.96,2.11,2.67,0,1.86-1.35,3.11-4.19,3.11-.46,0-1.23-.05-1.89-.05s-1.23.03-1.81.05c-.09-.05-.13-.3-.03-.4l.28-.05c.83-.14.87-.32.87-2v-6.08ZM10.96,197.21c0,.45.02.48.82.45,1.61-.06,2.47-.54,2.47-2.05s-1.15-2.16-2.35-2.16c-.35,0-.58.03-.72.1-.16.05-.22.13-.22.42v3.25ZM10.96,200.92c0,.58.03,1.39.33,1.74.3.37.77.45,1.24.45,1.4,0,2.47-.64,2.47-2.24,0-1.26-.63-2.74-3.13-2.74-.85,0-.91.1-.91.42v2.37Z"/>
    <path class="st0" d="M20.72,200.25c.24-.08.27-.22.27-.46l.02-.74c.02-.59-.17-1.39-1.15-1.39-.44,0-.98.22-1.01.72-.02.26-.03.45-.16.54-.24.19-.66.3-.9.3-.14,0-.22-.08-.22-.22,0-.83,1.78-1.97,2.93-1.97s1.68.67,1.64,1.87l-.09,2.79c-.03.74.11,1.39.72,1.39.16,0,.3-.05.39-.1.08-.05.16-.11.2-.11.06,0,.11.1.11.21,0,.08-.55.7-1.32.7-.38,0-.76-.14-1.02-.5-.06-.1-.16-.22-.25-.22-.11,0-.3.14-.61.32-.35.19-.69.4-1.13.4s-.83-.13-1.1-.37c-.3-.27-.49-.67-.49-1.12,0-.62.3-.99,1.31-1.36l1.87-.69ZM19.75,203.07c.31,0,.8-.24.96-.4.19-.19.19-.42.2-.75l.03-.94c0-.18-.06-.21-.16-.21s-.36.06-.65.16c-.93.32-1.39.56-1.39,1.18,0,.27.19.96.99.96Z"/>
    <path class="st0" d="M27.67,197.32c.14.35.25.86.25,1.3-.06.11-.3.14-.38.05-.27-.7-.74-1.17-1.39-1.17s-1.01.4-1.01.98c0,.66.66,1.01,1.21,1.33.83.48,1.61,1.02,1.61,2.16,0,1.22-1.1,1.82-2.27,1.82-.74,0-1.29-.16-1.69-.48-.13-.3-.22-1.09-.19-1.62.08-.1.28-.11.36-.02.27.88.77,1.65,1.67,1.65.57,0,1.05-.34,1.05-1.02,0-.74-.63-1.14-1.21-1.47-.91-.53-1.56-1.09-1.56-1.97,0-1.17.95-1.82,2.14-1.82.66,0,1.24.16,1.39.29Z"/>
    <path class="st0" d="M30.49,199.46c-.41,0-.43.03-.43.43,0,1.62.93,2.99,2.61,2.99.52,0,.96-.16,1.45-.79.16-.05.27.05.28.19-.52,1.09-1.65,1.49-2.47,1.49-1.02,0-1.83-.45-2.28-1.06-.47-.62-.66-1.38-.66-2.08,0-1.97,1.28-3.62,3.17-3.62,1.35,0,2.24.94,2.24,1.9,0,.22-.03.35-.06.42-.05.1-.27.11-.93.11h-2.91ZM31.46,198.98c1.17,0,1.51-.06,1.64-.16.05-.03.09-.1.09-.3,0-.45-.3-1.01-1.21-1.01s-1.73.86-1.75,1.39c0,.03,0,.08.11.08h1.12Z"/>
    <path class="st0" d="M37.22,201.77c0,1.15.03,1.31.6,1.39l.38.05c.11.08.08.35-.03.4-.52-.03-.98-.05-1.53-.05s-1.04.02-1.51.05c-.11-.05-.14-.32-.03-.4l.36-.05c.58-.08.6-.24.6-1.39v-7.23c0-.94-.02-1.04-.49-1.33l-.16-.1c-.08-.05-.08-.27,0-.32.39-.13,1.13-.37,1.7-.67.06,0,.13.03.16.1-.02.48-.05,1.28-.05,1.98v7.57Z"/>
    <path class="st0" d="M40.11,198.97c0-.62,0-.7-.42-.99l-.14-.1c-.06-.06-.06-.24.02-.29.36-.13,1.26-.54,1.62-.78.08,0,.14.03.16.1-.03.56-.06,1.33-.06,1.98v2.88c0,1.15.03,1.31.6,1.39l.33.05c.11.08.08.35-.03.4-.47-.03-.93-.05-1.48-.05s-1.04.02-1.48.05c-.11-.05-.14-.32-.03-.4l.33-.05c.58-.08.6-.24.6-1.39v-2.8ZM41.41,194.41c0,.58-.39.83-.83.83-.49,0-.8-.37-.8-.8,0-.53.38-.86.85-.86s.79.38.79.83Z"/>
    <path class="st0" d="M44.15,198.97c0-.62,0-.7-.42-.99l-.14-.1c-.06-.06-.06-.24.02-.29.36-.13,1.26-.54,1.57-.78.06,0,.14.03.17.11-.03.37-.03.61-.03.75,0,.1.06.18.17.18.66-.42,1.4-.82,2.2-.82,1.31,0,1.84.91,1.84,1.98v2.75c0,1.15.03,1.31.6,1.39l.35.05c.11.08.08.35-.03.4-.47-.03-.93-.05-1.48-.05s-1.04.02-1.46.05c-.11-.05-.14-.32-.03-.4l.3-.05c.58-.1.6-.24.6-1.39v-2.38c0-.91-.41-1.58-1.48-1.58-.6,0-1.12.26-1.34.56-.2.27-.24.5-.24.96v2.45c0,1.15.03,1.3.6,1.39l.28.05c.11.08.08.35-.03.4-.42-.03-.88-.05-1.43-.05s-1.04.02-1.48.05c-.11-.05-.14-.32-.03-.4l.33-.05c.58-.08.6-.24.6-1.39v-2.8Z"/>
    <path class="st0" d="M52.92,199.46c-.41,0-.43.03-.43.43,0,1.62.93,2.99,2.61,2.99.52,0,.96-.16,1.45-.79.16-.05.27.05.28.19-.52,1.09-1.65,1.49-2.47,1.49-1.02,0-1.83-.45-2.28-1.06-.47-.62-.66-1.38-.66-2.08,0-1.97,1.28-3.62,3.17-3.62,1.35,0,2.24.94,2.24,1.9,0,.22-.03.35-.06.42-.05.1-.27.11-.93.11h-2.91ZM53.9,198.98c1.17,0,1.51-.06,1.64-.16.05-.03.09-.1.09-.3,0-.45-.3-1.01-1.21-1.01s-1.73.86-1.75,1.39c0,.03,0,.08.11.08h1.12Z"/>
  </g>
  <g>
    <path class="st0" d="M9.67,249.17c0-1.12-.08-1.46-.74-1.55l-.35-.05c-.13-.08-.14-.34.02-.4,1.34-.08,2.61-.13,3.95-.13s2.44.1,3.46.48c2.13.78,3.2,2.61,3.2,4.72s-.96,3.78-2.76,4.77c-1.02.56-2.31.77-3.53.77-1.01,0-2.02-.13-2.57-.13-.66,0-1.23.02-1.97.05-.09-.05-.13-.3-.03-.4l.36-.05c.91-.13.94-.32.94-2v-6.08ZM10.96,254.89c0,.85.05,1.36.31,1.75.35.5.95.66,1.94.66,3.06,0,4.43-2.03,4.43-5.01,0-1.76-.83-4.74-4.96-4.74-.93,0-1.43.13-1.56.22-.13.1-.16.5-.16,1.22v5.91Z"/>
    <path class="st0" d="M21.89,253.56c-.41,0-.43.03-.43.43,0,1.62.93,2.99,2.61,2.99.52,0,.96-.16,1.45-.79.16-.05.27.05.28.19-.52,1.09-1.65,1.49-2.47,1.49-1.02,0-1.83-.45-2.28-1.06-.47-.62-.66-1.38-.66-2.08,0-1.97,1.28-3.62,3.17-3.62,1.35,0,2.24.94,2.24,1.9,0,.22-.03.35-.06.42-.05.1-.27.11-.93.11h-2.91ZM22.86,253.08c1.17,0,1.51-.06,1.64-.16.05-.03.09-.1.09-.3,0-.45-.3-1.01-1.21-1.01s-1.73.86-1.75,1.39c0,.03,0,.08.11.08h1.12Z"/>
    <path class="st0" d="M30.39,251.41c.14.35.25.86.25,1.3-.06.11-.3.14-.38.05-.27-.7-.74-1.17-1.39-1.17s-1.01.4-1.01.98c0,.66.66,1.01,1.21,1.33.83.48,1.61,1.02,1.61,2.16,0,1.22-1.1,1.82-2.27,1.82-.74,0-1.29-.16-1.69-.48-.13-.3-.22-1.09-.19-1.62.08-.1.28-.11.36-.02.27.88.77,1.65,1.67,1.65.57,0,1.05-.34,1.05-1.02,0-.74-.63-1.14-1.21-1.47-.91-.53-1.56-1.09-1.56-1.97,0-1.17.95-1.82,2.14-1.82.66,0,1.24.16,1.39.29Z"/>
    <path class="st0" d="M36.94,251.4c.13.11.24.37.24.64,0,.29-.16.59-.35.59-.08,0-.16-.03-.22-.11-.35-.43-.93-.85-1.58-.85-1.1,0-2.17.88-2.17,2.58,0,1.25.85,2.74,2.54,2.74.91,0,1.39-.42,1.75-.96.13-.03.27.08.28.22-.54,1.18-1.72,1.63-2.63,1.63-.83,0-1.61-.27-2.16-.82-.55-.54-.91-1.33-.91-2.37,0-1.73,1.2-3.57,3.81-3.57.36,0,.98.08,1.4.27Z"/>
    <path class="st0" d="M39.51,253.56c-.41,0-.43.03-.43.43,0,1.62.93,2.99,2.61,2.99.52,0,.96-.16,1.45-.79.16-.05.27.05.28.19-.52,1.09-1.65,1.49-2.47,1.49-1.02,0-1.83-.45-2.28-1.06-.47-.62-.66-1.38-.66-2.08,0-1.97,1.28-3.62,3.17-3.62,1.35,0,2.24.94,2.24,1.9,0,.22-.03.35-.06.42-.05.1-.27.11-.93.11h-2.91ZM40.48,253.08c1.17,0,1.51-.06,1.64-.16.05-.03.09-.1.09-.3,0-.45-.3-1.01-1.21-1.01s-1.73.86-1.75,1.39c0,.03,0,.08.11.08h1.12Z"/>
    <path class="st0" d="M45.24,253.06c0-.62,0-.7-.42-.99l-.14-.1c-.06-.06-.06-.24.02-.29.36-.13,1.26-.54,1.57-.78.06,0,.14.03.17.11-.03.37-.03.61-.03.75,0,.1.06.18.17.18.66-.42,1.4-.82,2.2-.82,1.31,0,1.84.91,1.84,1.98v2.75c0,1.15.03,1.31.6,1.39l.35.05c.11.08.08.35-.03.4-.47-.03-.93-.05-1.48-.05s-1.04.02-1.46.05c-.11-.05-.14-.32-.03-.4l.3-.05c.58-.1.6-.24.6-1.39v-2.38c0-.91-.41-1.58-1.48-1.58-.6,0-1.12.26-1.34.56-.2.27-.24.5-.24.96v2.45c0,1.15.03,1.3.6,1.39l.28.05c.11.08.08.35-.03.4-.42-.03-.88-.05-1.43-.05s-1.04.02-1.48.05c-.11-.05-.14-.32-.03-.4l.33-.05c.58-.08.6-.24.6-1.39v-2.8Z"/>
    <path class="st0" d="M58.64,255.32c0,1.26.02,1.86.46,1.86.17,0,.44-.08.68-.16.11.03.13.43-.02.51-.66.1-1.64.34-2.08.51-.09,0-.17-.05-.17-.13v-.27c0-.24,0-.43-.03-.5h-.06c-.69.48-1.23.74-1.98.74-1.75,0-2.91-1.39-2.91-3.07,0-2.24,1.67-3.68,3.81-3.68.54,0,.88.08,1.06.14.08,0,.09-.1.09-.22v-2.42c0-.94-.02-1.04-.49-1.33l-.16-.1c-.08-.05-.08-.27,0-.32.39-.13,1.13-.37,1.7-.67.06,0,.13.03.16.1-.02.48-.05,1.28-.05,1.98v7.03ZM57.48,252.92c0-.32-.06-.46-.17-.62-.24-.34-.71-.67-1.32-.67-1.43,0-2.17,1.26-2.17,2.66s.8,2.83,2.35,2.83c.42,0,.96-.19,1.21-.45.09-.1.11-.34.11-.59v-3.15Z"/>
    <path class="st0" d="M62.03,253.56c-.41,0-.42.03-.42.43,0,1.62.93,2.99,2.61,2.99.52,0,.96-.16,1.45-.79.16-.05.27.05.28.19-.52,1.09-1.65,1.49-2.47,1.49-1.02,0-1.83-.45-2.28-1.06-.47-.62-.66-1.38-.66-2.08,0-1.97,1.28-3.62,3.17-3.62,1.35,0,2.24.94,2.24,1.9,0,.22-.03.35-.06.42-.05.1-.27.11-.93.11h-2.91ZM63,253.08c1.17,0,1.51-.06,1.64-.16.05-.03.09-.1.09-.3,0-.45-.3-1.01-1.21-1.01s-1.73.86-1.75,1.39c0,.03,0,.08.11.08h1.12Z"/>
    <path class="st0" d="M67.76,253.06c0-.62,0-.7-.43-.99l-.14-.1c-.06-.06-.06-.24.02-.29.36-.13,1.2-.54,1.59-.78.08.02.13.05.13.11v.93c0,.08.02.13.05.14.55-.46,1.15-.96,1.73-.96.39,0,.71.26.71.64,0,.53-.43.74-.68.74-.16,0-.24-.05-.35-.11-.24-.16-.47-.26-.69-.26-.25,0-.44.14-.57.32-.16.22-.2.69-.2,1.23v2.18c0,1.15.03,1.34.63,1.39l.57.05c.11.08.08.35-.03.4-.74-.03-1.2-.05-1.75-.05s-1.04.02-1.45.05c-.11-.05-.14-.32-.03-.4l.3-.05c.58-.1.6-.24.6-1.39v-2.8Z"/>
    <path class="st0" d="M77.93,255.86c0,1.15.03,1.31.6,1.39l.38.05c.11.08.08.35-.03.4-.52-.03-.98-.05-1.53-.05s-1.04.02-1.51.05c-.11-.05-.14-.32-.03-.4l.36-.05c.58-.08.6-.24.6-1.39v-7.23c0-.94-.02-1.04-.49-1.33l-.16-.1c-.08-.05-.08-.27,0-.32.39-.13,1.13-.37,1.7-.67.06,0,.13.03.16.1-.02.48-.05,1.28-.05,1.98v7.57Z"/>
    <path class="st0" d="M80.81,253.06c0-.62,0-.7-.42-.99l-.14-.1c-.06-.06-.06-.24.02-.29.36-.13,1.26-.54,1.62-.78.08,0,.14.03.16.1-.03.56-.06,1.33-.06,1.98v2.88c0,1.15.03,1.31.6,1.39l.33.05c.11.08.08.35-.03.4-.47-.03-.93-.05-1.48-.05s-1.04.02-1.48.05c-.11-.05-.14-.32-.03-.4l.33-.05c.58-.08.6-.24.6-1.39v-2.8ZM82.12,248.5c0,.58-.39.83-.83.83-.49,0-.8-.37-.8-.8,0-.53.38-.86.85-.86s.79.38.79.83Z"/>
    <path class="st0" d="M84.86,253.06c0-.62,0-.7-.42-.99l-.14-.1c-.06-.06-.06-.24.02-.29.36-.13,1.26-.54,1.57-.78.06,0,.14.03.17.11-.03.37-.03.61-.03.75,0,.1.06.18.17.18.66-.42,1.4-.82,2.2-.82,1.31,0,1.84.91,1.84,1.98v2.75c0,1.15.03,1.31.6,1.39l.35.05c.11.08.08.35-.03.4-.47-.03-.93-.05-1.48-.05s-1.04.02-1.46.05c-.11-.05-.14-.32-.03-.4l.3-.05c.58-.1.6-.24.6-1.39v-2.38c0-.91-.41-1.58-1.48-1.58-.6,0-1.12.26-1.34.56-.2.27-.24.5-.24.96v2.45c0,1.15.03,1.3.6,1.39l.28.05c.11.08.08.35-.03.4-.42-.03-.88-.05-1.43-.05s-1.04.02-1.48.05c-.11-.05-.14-.32-.03-.4l.33-.05c.58-.08.6-.24.6-1.39v-2.8Z"/>
    <path class="st0" d="M93.63,253.56c-.41,0-.43.03-.43.43,0,1.62.93,2.99,2.61,2.99.52,0,.96-.16,1.45-.79.16-.05.27.05.28.19-.52,1.09-1.65,1.49-2.47,1.49-1.02,0-1.83-.45-2.28-1.06-.47-.62-.66-1.38-.66-2.08,0-1.97,1.28-3.62,3.17-3.62,1.35,0,2.24.94,2.24,1.9,0,.22-.03.35-.06.42-.05.1-.27.11-.93.11h-2.91ZM94.61,253.08c1.17,0,1.51-.06,1.64-.16.05-.03.09-.1.09-.3,0-.45-.3-1.01-1.21-1.01s-1.73.86-1.75,1.39c0,.03,0,.08.11.08h1.12Z"/>
  </g>
</svg>