<?xml version="1.0" encoding="UTF-8"?>
<svg id="Layer_1" xmlns="http://www.w3.org/2000/svg" version="1.1" viewBox="0 0 515.3 414">
  <!-- Generator: Adobe Illustrator 30.2.1, SVG Export Plug-In . SVG Version: 2.1.1 Build 1)  -->
  <defs>
    <style>
      .st0 {
        fill: #231f20;
      }

      .st1, .st2, .st3 {
        isolation: isolate;
      }

      .st4, .st2, .st3 {
        mix-blend-mode: multiply;
      }

      .st5, .st2 {
        fill: #f68c43;
      }

      .st6, .st3 {
        fill: #2d6bae;
      }
    </style>
  </defs>
  <g class="st1">
    <g id="Layer_11">
      <g>
        <g class="st4">
          <path class="st5" d="M201.92,289.11h-104.42v-161h24.15v137.31h80.27v23.69h0Z"/>
        </g>
        <g class="st4">
          <path class="st6" d="M97.32,124.89h24.61v143.98h74.52v20.24h-99.13V124.89h0Z"/>
        </g>
      </g>
    </g>
  </g>
  <g class="st1">
    <g id="Layer_12">
      <g>
        <circle class="st2" cx="369.08" cy="172.26" r="48.91" transform="translate(139.92 508.98) rotate(-80.78)"/>
        <circle class="st3" cx="369.08" cy="241.74" r="48.91"/>
        <g>
          <path class="st0" d="M278.83,237.13c0-1.87-.02-2.15-.94-2.22l-.41-.04c-.14-.1-.14-.45.02-.54,1.4-.12,2.97-.18,4.88-.18s3.18.16,4.61.66c2.34.86,4.01,2.93,4.01,5.84,0,2.17-1.07,4.39-3.5,5.62-1.38.7-3.06.94-4.84.94-1.19,0-2.11-.12-2.83-.12s-1.62.02-2.48.06c-.16-.08-.17-.43-.04-.56l.43-.06c.92-.12,1.09-.18,1.09-2.24v-7.15h0ZM281.09,243.52c0,1.89.14,2.91,2.21,2.91,3.48,0,5.04-2.46,5.04-5.76,0-3.87-2.24-5.74-5.51-5.74-.82,0-1.45.16-1.58.28s-.16.53-.16,1.45v6.87h0Z"/>
          <path class="st0" d="M296.4,244.28c0,2.07.17,2.13,1.09,2.24l.43.06c.14.14.12.49-.04.56-.86-.04-1.74-.06-2.6-.06s-1.78.02-2.64.06c-.16-.08-.17-.43-.04-.56l.43-.06c.92-.12,1.09-.18,1.09-2.24v-7.26c0-2.07-.18-2.13-1.09-2.24l-.43-.06c-.14-.14-.12-.49.04-.56.86.04,1.73.06,2.64.06s1.74-.02,2.6-.06c.16.08.17.43.04.56l-.43.06c-.92.12-1.09.18-1.09,2.24v7.26Z"/>
          <path class="st0" d="M311.78,243.77c0,.59,0,2.89.06,3.34-.16.21-.51.3-.74.28-.31-.41-.8-.98-2.21-2.57l-4.57-5.21c-1.25-1.45-1.89-2.17-2.22-2.46-.06,0-.06.21-.06,1.25v3.81c0,1.47.02,3.26.35,3.85.17.3.51.43,1,.49l.43.06c.18.14.16.51-.04.56-.72-.04-1.49-.06-2.22-.06-.82,0-1.35.02-2.03.06-.16-.1-.19-.43-.04-.56l.43-.1c.37-.08.72-.14.86-.45.25-.61.25-2.31.25-3.85v-4.63c0-1.52.02-1.84-.65-2.4-.21-.18-.76-.33-1.03-.39l-.29-.06c-.14-.12-.12-.51.08-.56.74.08,1.82.06,2.31.06.41,0,.88-.02,1.35-.06.33.84,2.46,3.3,3.15,4.04l1.96,2.11c.82.9,2.64,2.97,2.83,3.08.06-.06.06-.16.06-.47v-3.81c0-1.47-.02-3.26-.37-3.85-.17-.3-.49-.43-.98-.49l-.45-.06c-.18-.14-.16-.51.04-.56.76.04,1.49.06,2.24.06.84,0,1.35-.02,2.05-.06.16.1.19.43.04.56l-.45.1c-.37.08-.7.14-.84.45-.28.61-.28,2.31-.28,3.85v4.67-.02h-.02Z"/>
        </g>
        <g>
          <path class="st0" d="M245.22,174.79c0,2.07.17,2.13,1.09,2.24l.43.06c.14.14.12.49-.04.56-.86-.04-1.74-.06-2.6-.06s-1.78.02-2.64.06c-.16-.08-.17-.43-.04-.56l.43-.06c.92-.12,1.09-.18,1.09-2.24v-7.26c0-2.07-.18-2.13-1.09-2.24l-.43-.06c-.14-.14-.12-.49.04-.56.86.04,1.73.06,2.64.06s1.74-.02,2.6-.06c.16.08.17.43.04.56l-.43.06c-.92.12-1.09.18-1.09,2.24v7.26Z"/>
          <path class="st0" d="M251.08,175.28c0,1.45.08,1.68.74,1.78l.3.04c.14.14.12.49-.04.56-.68-.04-1.35-.06-2.07-.06-.63,0-1.29.02-2.11.06-.16-.08-.17-.43-.04-.56l.43-.06c.66-.1.74-.31.74-1.76v-2.87c0-.88,0-1.12-.49-1.4l-.23-.14c-.06-.08-.06-.35.02-.45.84-.23,1.91-.7,2.54-1.05.14,0,.21.08.25.16-.04.37-.04.74-.04.89,0,.14.06.18.17.19.92-.51,1.47-.98,2.68-.98,1.58,0,2.33,1.09,2.33,2.62v3.03c0,1.45.08,1.68.74,1.76l.45.06c.14.14.12.49-.04.56-.82-.04-1.49-.06-2.21-.06-.65,0-1.31.02-1.99.06-.16-.08-.17-.43-.04-.56l.3-.04c.66-.1.74-.33.74-1.78v-2.69c0-1-.39-1.78-1.56-1.78-.61,0-1.09.31-1.29.61-.25.35-.28.53-.28,1.25v2.62h0Z"/>
          <path class="st0" d="M261.78,170.77c-.35,0-.37.04-.37.66v3.01c0,1.23.17,2.33,1.43,2.33.39,0,.63-.14.94-.35.17.02.29.18.25.39-.39.54-1.29,1.07-2.48,1.07-1.85,0-2.19-1.07-2.19-2.44v-3.97c0-.68-.04-.7-.35-.7h-.68c-.19-.1-.23-.41-.06-.53.66-.25,1.12-.51,1.54-.82.37-.28.8-.68,1.07-1.21.17-.12.45-.06.54.1v1.17c0,.31,0,.37.37.37h1.93c.12.06.16.21.16.41-.02.23-.1.41-.25.51h-1.86,0Z"/>
          <path class="st0" d="M266.82,172.98c-.37,0-.41.02-.41.25,0,1.76,1.21,3.17,2.95,3.17.78,0,1.43-.25,1.87-.98.19-.06.41.14.43.31-.66,1.56-2.11,2.15-3.3,2.15-2.27,0-3.77-1.68-3.77-3.9s1.5-4.34,4.12-4.34c1.45,0,2.93.94,2.93,2.64,0,.18-.02.3-.1.45-.12.17-.56.25-1.35.25h-3.38.01ZM268.61,172.2c.56,0,.82-.06.96-.14.12-.08.19-.23.19-.41,0-.7-.45-1.27-1.29-1.27-1.31,0-1.91,1.27-1.91,1.68,0,.08.04.14.28.14h1.78,0Z"/>
          <path class="st0" d="M273.71,172.41c0-.88,0-1.12-.49-1.4l-.23-.14c-.06-.08-.06-.35.02-.45.84-.28,1.87-.7,2.46-1.05.12,0,.23.06.28.18-.02.37-.04.7-.04.88,0,.14.08.23.19.23.61-.43,1.25-1.02,1.91-1.02s1.07.45,1.07.96c0,.76-.56,1.14-1.09,1.14-.19,0-.37-.06-.53-.16-.49-.33-.82-.37-.94-.37-.45,0-.56.45-.56,1.4v2.68c0,1.45.08,1.66.76,1.73l.76.08c.14.14.12.49-.04.56-1.17-.04-1.84-.06-2.56-.06-.65,0-1.29.02-2.03.06-.16-.08-.18-.43-.04-.56l.35-.06c.66-.12.74-.31.74-1.76v-2.87h.01Z"/>
          <path class="st0" d="M279.74,177.26c-.19-.37-.31-1.37-.28-2.21.12-.16.41-.18.54-.04.35,1.09,1.07,2.13,2.11,2.13.61,0,1.09-.41,1.09-1.09,0-.72-.65-1.19-1.33-1.52-1.01-.49-2.07-1.21-2.07-2.46-.02-1.52,1.29-2.42,2.91-2.42.8,0,1.54.23,1.82.39.19.41.3,1.02.3,1.89-.06.16-.39.21-.53.1-.29-.89-.92-1.64-1.68-1.64-.63,0-1.09.45-1.09,1.02s.56.98,1.31,1.33c1.05.51,2.17,1.17,2.17,2.71,0,1.7-1.5,2.44-3.04,2.44-.8,0-1.6-.16-2.22-.63h-.01Z"/>
          <path class="st0" d="M289.6,170.77c-.35,0-.37.04-.37.66v3.01c0,1.23.17,2.33,1.43,2.33.39,0,.63-.14.94-.35.17.02.29.18.25.39-.39.54-1.29,1.07-2.48,1.07-1.85,0-2.19-1.07-2.19-2.44v-3.97c0-.68-.04-.7-.35-.7h-.68c-.19-.1-.23-.41-.06-.53.66-.25,1.12-.51,1.54-.82.37-.28.8-.68,1.07-1.21.17-.12.45-.06.54.1v1.17c0,.31,0,.37.37.37h1.93c.12.06.16.21.16.41-.02.23-.1.41-.25.51h-1.86,0Z"/>
          <path class="st0" d="M298.51,175.13c-.06,1.14.23,1.72.94,1.72.33,0,.61-.21.66-.21.1,0,.23.21.17.39-.39.54-1.35.86-1.96.86-.49,0-1.03-.14-1.4-.54-.14-.14-.21-.23-.31-.23s-.23.1-.53.28c-.37.23-.96.51-1.66.51-1.33,0-1.99-.92-1.99-1.89,0-.7.28-1.35,1.62-1.82.68-.23,1.43-.51,2.15-.78.39-.14.45-.31.45-.51l.02-.51c.04-1-.23-1.85-1.19-1.85-.54,0-.96.3-1.03.86-.04.37-.16.56-.37.7-.28.18-.82.35-1.25.35-.25,0-.37-.14-.37-.31,0-.23.12-.65.76-1.25.61-.56,2.01-1.23,3.01-1.23,1.54,0,2.5.72,2.42,2.44l-.14,3.05v-.02h0ZM296.6,174.46c0-.21-.06-.33-.16-.33-.16,0-.51.1-.86.23-.54.19-1.05.47-1.05,1.31,0,.51.35,1.14,1.09,1.14.7,0,.92-.47.94-.94l.04-1.4h0Z"/>
          <path class="st0" d="M304.07,170.77c-.35,0-.37.04-.37.66v3.01c0,1.23.17,2.33,1.43,2.33.39,0,.63-.14.94-.35.17.02.29.18.25.39-.39.54-1.29,1.07-2.48,1.07-1.85,0-2.19-1.07-2.19-2.44v-3.97c0-.68-.04-.7-.35-.7h-.68c-.19-.1-.23-.41-.06-.53.66-.25,1.12-.51,1.54-.82.37-.28.8-.68,1.07-1.21.17-.12.45-.06.54.1v1.17c0,.31,0,.37.37.37h1.93c.12.06.16.21.16.41-.02.23-.1.41-.25.51h-1.86,0Z"/>
          <path class="st0" d="M309.11,172.98c-.37,0-.41.02-.41.25,0,1.76,1.21,3.17,2.95,3.17.78,0,1.43-.25,1.87-.98.19-.06.41.14.43.31-.66,1.56-2.11,2.15-3.3,2.15-2.27,0-3.77-1.68-3.77-3.9s1.5-4.34,4.12-4.34c1.45,0,2.93.94,2.93,2.64,0,.18-.02.3-.1.45-.12.17-.56.25-1.35.25h-3.38.01ZM310.91,172.2c.56,0,.82-.06.96-.14.12-.08.19-.23.19-.41,0-.7-.45-1.27-1.29-1.27-1.31,0-1.91,1.27-1.91,1.68,0,.08.04.14.28.14h1.78,0Z"/>
        </g>
      </g>
    </g>
  </g>
</svg>