<?xml version="1.0" encoding="UTF-8"?>
<svg id="Layer_1" data-name="Layer 1" xmlns="http://www.w3.org/2000/svg" viewBox="0 0 478.08 414">
  <defs>
    <style>
      .cls-1 {
        stroke: #2d6bae;
      }

      .cls-1, .cls-2 {
        fill: none;
        stroke-miterlimit: 10;
      }

      .cls-3 {
        fill: #231f20;
      }

      .cls-2 {
        stroke: #f68c43;
      }

      .cls-4 {
        fill: #2d6bae;
      }

      .cls-5 {
        fill: #f68c43;
      }
    </style>
  </defs>
  <path class="cls-4" d="M144.21,125.35s45.81,2.89,46.54,39.79c.72,36.89,9.4,85.12-17.12,95.73-26.52,10.61-61.73,22.18-68.48-17.84-6.75-40.03-12.54-98.38,4.82-104.65,17.36-6.27,34.24-13.02,34.24-13.02Z"/>
  <path class="cls-5" d="M313.96,125.35s45.81,2.89,46.54,39.79c.72,36.89,9.4,85.12-17.12,95.73-26.52,10.61-61.73,22.18-68.48-17.84-6.75-40.03-12.54-98.38,4.82-104.65,17.36-6.27,34.24-13.02,34.24-13.02Z"/>
  <path class="cls-3" d="M384.45,197c0,28.29-9.43,51.52-24.84,66.01l10.81,16.79-19.78,12.42-10.81-16.56c-7.13,2.76-15.18,4.37-23.69,4.37-41.63,0-68.08-34.27-68.08-83.03s26.45-83.03,68.08-83.03,68.31,34.27,68.31,83.03ZM359.84,197c0-36.11-15.41-58.88-43.7-58.88s-43.47,22.77-43.47,58.88,15.41,59.34,43.47,59.34c4.37,0,7.59-.46,10.81-1.15l-11.73-18.17,19.78-12.42,11.73,18.4c9.2-10.12,13.11-25.99,13.11-46Z"/>
  <path class="cls-3" d="M186.86,268.29c-10.58,8.28-21.85,11.5-40.71,11.5-21.62,0-36.57-6.21-46.92-19.78-8.05-10.35-11.27-23-11.27-44.62v-40.02c0-23.46,3.68-36.57,13.57-47.38,10.81-11.96,24.61-17.02,45.77-17.02,22.54,0,37.49,6.21,47.84,19.78,8.05,10.35,11.27,23,11.27,44.62v40.02c0,18.4-1.84,28.06-7.36,38.64l17.48,14.03-12.19,14.26-17.48-14.03ZM144.54,234.71l12.19-14.26,22.08,17.48c2.3-7.36,2.99-12.42,2.99-24.84v-35.42c0-32.89-10.35-46.69-34.5-46.69s-34.73,13.8-34.73,46.69v35.42c0,32.89,10.35,46.69,34.73,46.69,8.97,0,15.64-1.84,21.16-6.21l-23.92-18.86Z"/>
  <circle class="cls-1" cx="205.09" cy="273.15" r="22.3"/>
  <circle class="cls-2" cx="357" cy="283.52" r="22.3"/>
  <g>
    <path class="cls-3" d="M228.8,295.42c.11.02.17.09.17.17-.11.51-.36,1.12-.74,1.56l-3.93.51c-.53.08-.57.11-.68.53l-.19.68c-.06.21.02.3.38.36l1.33.23c1.5.27,4.25,1.06,4.25,4.04,0,3.4-4.06,5.5-7.12,5.62-.23-.11-.3-.46-.13-.65,2.68-.32,5.39-1.67,5.39-4.29s-2.75-3.26-4.86-3.32c-.4-.02-.46-.1-.32-.59l1.02-3.7c.08-.3.19-.47.49-.51l4.94-.65Z"/>
    <path class="cls-3" d="M239.58,301.9c0,2.98-1.16,6.21-4.08,6.21s-4.08-3.23-4.08-6.21,1.16-6.21,4.08-6.21,4.08,3.34,4.08,6.21ZM233.66,301.9c0,1.78.19,5.45,1.84,5.45s1.84-3.66,1.84-5.45-.19-5.45-1.84-5.45-1.84,3.66-1.84,5.45Z"/>
    <path class="cls-3" d="M246.82,298.27c0,1.63-1.21,2.56-2.68,2.56s-2.68-.93-2.68-2.56,1.21-2.58,2.68-2.58,2.68,1.02,2.68,2.58ZM242.68,298.27c0,1.04.59,1.78,1.46,1.78s1.46-.74,1.46-1.78-.59-1.8-1.46-1.8-1.46.74-1.46,1.8Z"/>
  </g>
  <g>
    <path class="cls-3" d="M389.01,295.82c0,.78-.3,1.56-2.03,2.41-.11.13-.04.27.23.28,1.44.13,2.75,1.1,2.75,2.98,0,3.06-3.28,5.39-6.13,5.39-.89,0-1.88-.4-1.88-1.23,0-.49.38-.89.89-.89s.89.51,1.04.7c.34.42.63.61,1.04.61.89,0,2.83-1.33,2.83-3.64,0-1.59-.8-2.89-2.41-2.89-.72,0-1.4.38-1.84.78-.3-.04-.55-.46-.42-.78,1.23-.55,3.76-1.27,3.76-3.21,0-1.06-.66-1.61-1.48-1.61-.93,0-1.69.59-2.33,1.58-.19.09-.38-.08-.42-.3.63-1.4,2.03-2.32,3.57-2.32,1.75,0,2.83.93,2.83,2.15Z"/>
    <path class="cls-3" d="M397.33,304.2c1.37,0,1.69-.15,2.28-1.2.13-.08.4-.04.47.11-.27,1.4-.65,2.39-.93,2.77-.74-.04-1.52-.06-2.39-.06h-3.13c-1.06,0-1.69.02-2.09.06-.11-.08-.17-.19-.11-.34,1.03-.91,1.69-1.5,2.85-2.71,1.44-1.48,2.75-3.32,2.75-5.31,0-1.52-.87-2.62-2.26-2.62-1.08,0-1.75.68-2.33,1.67-.23.04-.46-.06-.49-.28.7-1.67,2.2-2.6,3.97-2.6,2.03,0,3.3,1.37,3.3,3.15,0,1.21-.53,2.43-2.24,4.23l-1.56,1.63c-.82.85-.89,1.1-.89,1.23,0,.15.09.27.59.27h2.22Z"/>
    <path class="cls-3" d="M407.16,296.26c0,1.63-1.21,2.56-2.68,2.56s-2.68-.93-2.68-2.56,1.21-2.58,2.68-2.58,2.68,1.02,2.68,2.58ZM403.03,296.26c0,1.04.59,1.78,1.46,1.78s1.46-.74,1.46-1.78-.59-1.8-1.46-1.8-1.46.74-1.46,1.8Z"/>
  </g>
</svg>