<?xml version="1.0" encoding="UTF-8"?>
<svg id="Layer_1" data-name="Layer 1" xmlns="http://www.w3.org/2000/svg" viewBox="0 0 478.08 414">
  <defs>
    <style>
      .cls-1 {
        stroke: #2d6bae;
      }

      .cls-1, .cls-2 {
        fill: none;
        stroke-miterlimit: 10;
      }

      .cls-3 {
        fill: #231f20;
      }

      .cls-2 {
        stroke: #f68c43;
      }
    </style>
  </defs>
  <path class="cls-3" d="M359,212.37c0,43.55-18.53,66.49-57.68,66.49-30.35,0-48.42-15.98-56.53-43.09l23.63-6.95c6.25,16.68,15.98,25.71,33.59,25.71,23.4,0,32.66-13.2,32.66-44.02v-96.37h24.32v98.22Z"/>
  <path class="cls-3" d="M207.35,110.91v100.54c0,28.03-1.16,37.76-6.02,46.56-7.18,13.67-21.08,20.62-40.77,20.62-18.07,0-31.04-5.33-44.94-18.07l13.67-16.45c9.27,9.73,18.76,14.36,29.19,14.36s18.3-5.56,21.78-15.98c1.85-5.79,2.32-12.97,2.32-30.58v-101h24.79Z"/>
  <circle class="cls-2" cx="257.16" cy="239.08" r="20.68"/>
  <circle class="cls-1" cx="123.21" cy="252.68" r="20.68"/>
  <line class="cls-2" x1="244.8" y1="285.28" x2="356.91" y2="285.28"/>
  <line class="cls-1" x1="115.62" y1="285.28" x2="199.52" y2="285.28"/>
  <line class="cls-1" x1="199.52" y1="282.52" x2="199.52" y2="287.76"/>
  <line class="cls-2" x1="244.8" y1="282.52" x2="244.8" y2="287.76"/>
  <line class="cls-2" x1="356.91" y1="282.52" x2="356.91" y2="287.76"/>
  <line class="cls-1" x1="115.62" y1="282.7" x2="115.62" y2="287.85"/>
  <g>
    <path class="cls-3" d="M138.72,214.29c.12.02.17.1.17.17-.12.52-.37,1.14-.75,1.58l-4,.52c-.54.08-.58.12-.7.54l-.19.69c-.06.21.02.31.39.37l1.35.23c1.52.27,4.32,1.08,4.32,4.11,0,3.46-4.13,5.6-7.24,5.71-.23-.12-.31-.46-.13-.66,2.72-.33,5.48-1.7,5.48-4.36s-2.8-3.32-4.94-3.38c-.41-.02-.46-.1-.33-.6l1.04-3.76c.08-.31.19-.48.5-.52l5.02-.66Z"/>
    <path class="cls-3" d="M149.69,220.87c0,3.03-1.18,6.31-4.15,6.31s-4.15-3.28-4.15-6.31,1.18-6.31,4.15-6.31,4.15,3.4,4.15,6.31ZM143.66,220.87c0,1.81.19,5.54,1.87,5.54s1.87-3.73,1.87-5.54-.19-5.54-1.87-5.54-1.87,3.73-1.87,5.54Z"/>
    <path class="cls-3" d="M157.04,217.18c0,1.66-1.24,2.61-2.72,2.61s-2.72-.95-2.72-2.61,1.24-2.62,2.72-2.62,2.72,1.04,2.72,2.62ZM152.83,217.18c0,1.06.6,1.81,1.49,1.81s1.49-.75,1.49-1.81-.6-1.83-1.49-1.83-1.49.75-1.49,1.83Z"/>
  </g>
  <g>
    <path class="cls-3" d="M277.72,215.77c0,1.85.08,1.87,1.24,2.05l.52.08c.14.12.14.5-.04.56-.91-.04-1.81-.06-2.66-.06-.98,0-1.87.02-2.8.06-.17-.06-.17-.44-.04-.56l.52-.08c1.16-.17,1.24-.19,1.24-2.05v-6.12c0-1.27-.06-1.74-.93-1.83l-.93-.1c-.12-.1-.12-.39-.02-.46,1.6-.31,2.95-.77,3.75-1.22.12.02.19.08.21.17-.04.41-.06,1.56-.06,2.34v7.22Z"/>
    <path class="cls-3" d="M288.31,206.32c1.06,0,2.3,0,2.53-.06.08.04.13.1.13.23-.46.73-1.08,1.76-1.89,3.34l-5.02,9.77c-.33.04-.81-.12-.83-.44l4.94-9.38c.39-.73.64-1.45.64-1.6,0-.1-.12-.19-.44-.19h-3.92c-.95,0-1.6.1-2.01.89-.14.1-.42.06-.48-.14.29-.91.48-1.74.66-2.47.39.04,1,.06,2.05.06h3.65Z"/>
    <path class="cls-3" d="M297.87,208.67c0,1.66-1.24,2.61-2.72,2.61s-2.72-.95-2.72-2.61,1.24-2.62,2.72-2.62,2.72,1.04,2.72,2.62ZM293.66,208.67c0,1.06.6,1.81,1.49,1.81s1.49-.75,1.49-1.81-.6-1.83-1.49-1.83-1.49.75-1.49,1.83Z"/>
  </g>
</svg>