<?xml version="1.0" encoding="UTF-8"?>
<svg xmlns="http://www.w3.org/2000/svg" viewBox="0 0 478.08 414">
  <defs>
    <style>
      .cls-1 {
        fill: #231f20;
      }

      .cls-2 {
        fill: #f68c43;
      }

      .cls-2, .cls-3 {
        mix-blend-mode: multiply;
      }

      .cls-4 {
        isolation: isolate;
      }

      .cls-3 {
        fill: #2d6bae;
      }
    </style>
  </defs>
  <g class="cls-4">
    <g id="Layer_1" data-name="Layer 1">
      <g>
        <circle class="cls-2" cx="296.81" cy="156.54" r="71.04"/>
        <circle class="cls-3" cx="296.81" cy="257.46" r="71.04"/>
        <g>
          <path class="cls-1" d="M165.71,250.77c0-2.72-.03-3.12-1.36-3.23l-.6-.06c-.2-.14-.2-.65.03-.79,2.04-.17,4.31-.26,7.09-.26s4.62.23,6.69.96c3.4,1.25,5.82,4.25,5.82,8.48,0,3.15-1.56,6.38-5.08,8.17-2.01,1.02-4.45,1.36-7.03,1.36-1.73,0-3.06-.17-4.11-.17s-2.35.03-3.6.08c-.23-.11-.25-.62-.06-.82l.62-.09c1.33-.17,1.59-.26,1.59-3.26v-10.38ZM169,260.04c0,2.75.2,4.23,3.21,4.23,5.05,0,7.32-3.57,7.32-8.37,0-5.62-3.26-8.34-8-8.34-1.19,0-2.1.23-2.3.4-.2.17-.23.77-.23,2.1v9.98Z"/>
          <path class="cls-1" d="M191.23,261.15c0,3.01.25,3.09,1.59,3.26l.62.09c.2.2.17.71-.06.82-1.25-.06-2.53-.08-3.77-.08s-2.58.03-3.83.08c-.23-.11-.25-.62-.06-.82l.62-.09c1.33-.17,1.59-.26,1.59-3.26v-10.55c0-3.01-.26-3.09-1.59-3.26l-.62-.08c-.2-.2-.17-.71.06-.82,1.25.06,2.52.08,3.83.08s2.53-.03,3.77-.08c.23.11.25.62.06.82l-.62.08c-1.33.17-1.59.26-1.59,3.26v10.55Z"/>
          <path class="cls-1" d="M213.58,260.41c0,.85,0,4.2.08,4.85-.23.31-.74.43-1.08.4-.45-.6-1.16-1.42-3.21-3.74l-6.64-7.57c-1.82-2.1-2.75-3.15-3.23-3.57-.08,0-.08.31-.08,1.82v5.53c0,2.13.03,4.74.51,5.59.25.43.74.62,1.45.71l.62.09c.26.2.23.74-.06.82-1.05-.06-2.16-.08-3.23-.08-1.19,0-1.96.03-2.95.08-.23-.14-.28-.62-.06-.82l.62-.14c.54-.11,1.05-.2,1.25-.65.37-.88.37-3.35.37-5.59v-6.72c0-2.21.03-2.67-.94-3.49-.31-.26-1.11-.48-1.5-.57l-.42-.08c-.2-.17-.17-.74.11-.82,1.08.11,2.64.08,3.35.08.59,0,1.28-.03,1.96-.08.48,1.22,3.57,4.79,4.57,5.87l2.84,3.06c1.19,1.31,3.83,4.31,4.11,4.48.08-.08.08-.23.08-.68v-5.53c0-2.13-.03-4.74-.54-5.59-.25-.43-.71-.62-1.42-.71l-.65-.08c-.26-.2-.23-.74.06-.82,1.11.06,2.16.08,3.26.08,1.22,0,1.96-.03,2.98-.08.23.14.28.62.06.82l-.65.14c-.54.11-1.02.2-1.22.65-.4.88-.4,3.35-.4,5.59v6.78Z"/>
        </g>
        <g>
          <path class="cls-1" d="M116.9,160.22c0,3.01.25,3.09,1.59,3.26l.62.09c.2.2.17.71-.06.82-1.25-.06-2.53-.08-3.77-.08s-2.58.03-3.83.08c-.23-.11-.25-.62-.06-.82l.62-.09c1.33-.17,1.59-.26,1.59-3.26v-10.55c0-3.01-.26-3.09-1.59-3.26l-.62-.08c-.2-.2-.17-.71.06-.82,1.25.06,2.52.08,3.83.08s2.53-.03,3.77-.08c.23.11.25.62.06.82l-.62.08c-1.33.17-1.59.26-1.59,3.26v10.55Z"/>
          <path class="cls-1" d="M125.41,160.93c0,2.1.11,2.44,1.08,2.58l.43.06c.2.2.17.71-.06.82-.99-.06-1.96-.08-3.01-.08-.91,0-1.87.03-3.06.08-.23-.11-.25-.62-.06-.82l.62-.09c.96-.14,1.08-.45,1.08-2.55v-4.17c0-1.28,0-1.62-.71-2.04l-.34-.2c-.08-.11-.08-.51.03-.65,1.22-.34,2.78-1.02,3.69-1.53.2,0,.31.11.37.23-.06.54-.06,1.08-.06,1.3,0,.2.08.26.25.28,1.33-.74,2.13-1.42,3.89-1.42,2.3,0,3.38,1.59,3.38,3.8v4.4c0,2.1.11,2.44,1.08,2.55l.65.09c.2.2.17.71-.06.82-1.19-.06-2.16-.08-3.21-.08-.94,0-1.9.03-2.89.08-.23-.11-.25-.62-.06-.82l.43-.06c.96-.14,1.08-.48,1.08-2.58v-3.91c0-1.45-.57-2.58-2.27-2.58-.88,0-1.59.45-1.87.88-.37.51-.4.77-.4,1.82v3.8Z"/>
          <path class="cls-1" d="M140.95,154.38c-.51,0-.54.06-.54.96v4.37c0,1.79.25,3.38,2.07,3.38.57,0,.91-.2,1.36-.51.25.03.42.26.37.57-.57.79-1.87,1.56-3.6,1.56-2.69,0-3.18-1.56-3.18-3.55v-5.76c0-.99-.06-1.02-.51-1.02h-.99c-.28-.14-.34-.6-.08-.77.96-.37,1.62-.74,2.24-1.19.54-.4,1.16-.99,1.56-1.76.25-.17.65-.08.79.14v1.7c0,.45,0,.54.54.54h2.81c.17.08.23.31.23.6-.03.34-.14.6-.37.74h-2.69Z"/>
          <path class="cls-1" d="M148.27,157.59c-.54,0-.6.03-.6.37,0,2.55,1.76,4.6,4.28,4.6,1.13,0,2.07-.37,2.72-1.42.28-.08.6.2.62.45-.96,2.27-3.06,3.12-4.79,3.12-3.29,0-5.47-2.44-5.47-5.67s2.18-6.3,5.99-6.3c2.1,0,4.25,1.36,4.25,3.83,0,.26-.03.43-.14.65-.17.25-.82.37-1.96.37h-4.91ZM150.87,156.45c.82,0,1.19-.08,1.39-.2.17-.11.28-.34.28-.6,0-1.02-.65-1.84-1.87-1.84-1.9,0-2.78,1.84-2.78,2.44,0,.11.06.2.4.2h2.58Z"/>
          <path class="cls-1" d="M158.28,156.76c0-1.28,0-1.62-.71-2.04l-.34-.2c-.08-.11-.08-.51.03-.65,1.22-.4,2.72-1.02,3.57-1.53.17,0,.34.09.4.26-.03.54-.06,1.02-.06,1.28,0,.2.11.34.28.34.88-.62,1.82-1.48,2.78-1.48s1.56.65,1.56,1.39c0,1.11-.82,1.65-1.59,1.65-.28,0-.54-.09-.77-.23-.71-.48-1.19-.54-1.36-.54-.65,0-.82.65-.82,2.04v3.89c0,2.1.11,2.41,1.11,2.52l1.11.11c.2.2.17.71-.06.82-1.7-.06-2.67-.08-3.72-.08-.94,0-1.87.03-2.95.08-.23-.11-.26-.62-.06-.82l.51-.09c.96-.17,1.08-.45,1.08-2.55v-4.17Z"/>
          <path class="cls-1" d="M167.04,163.8c-.28-.54-.45-1.99-.4-3.21.17-.23.6-.26.79-.06.51,1.59,1.56,3.09,3.06,3.09.88,0,1.59-.6,1.59-1.59,0-1.05-.94-1.73-1.93-2.21-1.47-.71-3.01-1.76-3.01-3.57-.03-2.21,1.87-3.52,4.23-3.52,1.16,0,2.24.34,2.64.57.28.6.43,1.48.43,2.75-.09.23-.57.31-.77.14-.42-1.3-1.33-2.38-2.44-2.38-.91,0-1.59.65-1.59,1.48s.82,1.42,1.9,1.93c1.53.74,3.15,1.7,3.15,3.94,0,2.47-2.18,3.55-4.42,3.55-1.16,0-2.33-.23-3.23-.91Z"/>
          <path class="cls-1" d="M181.36,154.38c-.51,0-.54.06-.54.96v4.37c0,1.79.25,3.38,2.07,3.38.57,0,.91-.2,1.36-.51.25.03.42.26.37.57-.57.79-1.87,1.56-3.6,1.56-2.69,0-3.18-1.56-3.18-3.55v-5.76c0-.99-.06-1.02-.51-1.02h-.99c-.28-.14-.34-.6-.08-.77.96-.37,1.62-.74,2.24-1.19.54-.4,1.16-.99,1.56-1.76.25-.17.65-.08.79.14v1.7c0,.45,0,.54.54.54h2.81c.17.08.23.31.23.6-.03.34-.14.6-.37.74h-2.69Z"/>
          <path class="cls-1" d="M194.3,160.71c-.08,1.65.34,2.5,1.36,2.5.48,0,.88-.31.96-.31.14,0,.34.31.25.57-.57.79-1.96,1.25-2.84,1.25-.71,0-1.5-.2-2.04-.79-.2-.2-.31-.34-.45-.34s-.34.14-.77.4c-.54.34-1.39.74-2.41.74-1.93,0-2.89-1.33-2.89-2.75,0-1.02.4-1.96,2.35-2.64.99-.34,2.07-.74,3.12-1.13.57-.2.65-.45.65-.74l.03-.74c.06-1.45-.34-2.69-1.73-2.69-.79,0-1.39.43-1.5,1.25-.06.54-.23.82-.54,1.02-.4.26-1.19.51-1.82.51-.37,0-.54-.2-.54-.45,0-.34.17-.94,1.11-1.82.88-.82,2.92-1.79,4.37-1.79,2.24,0,3.63,1.05,3.52,3.55l-.2,4.43ZM191.52,159.74c0-.31-.08-.48-.23-.48-.23,0-.74.14-1.25.34-.79.28-1.53.68-1.53,1.9,0,.74.51,1.65,1.59,1.65,1.02,0,1.33-.68,1.36-1.36l.06-2.04Z"/>
          <path class="cls-1" d="M202.38,154.38c-.51,0-.54.06-.54.96v4.37c0,1.79.25,3.38,2.07,3.38.57,0,.91-.2,1.36-.51.25.03.42.26.37.57-.57.79-1.87,1.56-3.6,1.56-2.69,0-3.18-1.56-3.18-3.55v-5.76c0-.99-.06-1.02-.51-1.02h-.99c-.28-.14-.34-.6-.08-.77.96-.37,1.62-.74,2.24-1.19.54-.4,1.16-.99,1.56-1.76.25-.17.65-.08.79.14v1.7c0,.45,0,.54.54.54h2.81c.17.08.23.31.23.6-.03.34-.14.6-.37.74h-2.69Z"/>
          <path class="cls-1" d="M209.7,157.59c-.54,0-.6.03-.6.37,0,2.55,1.76,4.6,4.28,4.6,1.13,0,2.07-.37,2.72-1.42.28-.08.6.2.62.45-.96,2.27-3.06,3.12-4.79,3.12-3.29,0-5.48-2.44-5.48-5.67s2.18-6.3,5.99-6.3c2.1,0,4.25,1.36,4.25,3.83,0,.26-.03.43-.14.65-.17.25-.82.37-1.96.37h-4.91ZM212.31,156.45c.82,0,1.19-.08,1.39-.2.17-.11.28-.34.28-.6,0-1.02-.65-1.84-1.87-1.84-1.9,0-2.78,1.84-2.78,2.44,0,.11.06.2.4.2h2.58Z"/>
        </g>
      </g>
    </g>
  </g>
</svg>