<?xml version="1.0" encoding="UTF-8"?>
<svg id="Layer_1" data-name="Layer 1" xmlns="http://www.w3.org/2000/svg" viewBox="0 0 478.08 414">
  <defs>
    <style>
      .cls-1 {
        fill: #231f20;
      }

      .cls-2 {
        fill: none;
      }

      .cls-3 {
        fill: #2d6bae;
      }

      .cls-4 {
        fill: #f68c43;
      }
    </style>
  </defs>
  <polygon class="cls-2" points="142.17 203.75 132.87 203.75 137.52 213.5 142.17 203.75"/>
  <polygon class="cls-1" points="88.66 111.11 64.92 111.11 64.92 277.25 88.89 277.25 88.89 158.58 110.78 203.75 132.87 203.75 88.66 111.11"/>
  <polygon class="cls-3" points="137.52 213.5 132.87 203.75 110.78 203.75 129.61 242.58 145.43 242.58 164.26 203.75 142.17 203.75 137.52 213.5"/>
  <polygon class="cls-1" points="186.39 111.11 142.17 203.75 164.26 203.75 186.15 158.58 186.15 277.25 210.12 277.25 210.12 111.11 186.39 111.11"/>
  <path class="cls-2" d="M345.28,215.94h-9.9c2.06,5.03,3.89,9.74,4.95,13.15,1.18-3.43,2.96-8.11,4.95-13.15Z"/>
  <path class="cls-1" d="M329.16,201.16l-36.54-86.79h-25.13v162.88h23.03v-86.09c0-9.77-.23-23.97-.47-28.62,1.86,4.65,6.52,16.29,10.47,25.6l11.86,27.81h22.99c-2.02-4.93-4.26-10.17-6.22-14.78Z"/>
  <path class="cls-4" d="M340.33,229.08c-1.06-3.41-2.89-8.12-4.95-13.15h-22.99l27.23,63.87,27.56-63.87h-21.91c-1.98,5.03-3.77,9.72-4.95,13.15Z"/>
  <path class="cls-1" d="M387.1,114.37l-35.83,86.79c-1.95,4.7-4.06,9.9-5.99,14.78h21.91l12-27.81c3.95-9.31,8.61-20.94,10.47-25.6-.23,4.65-.47,18.85-.47,28.62v86.09h23.97V114.37h-26.06Z"/>
</svg>