<?xml version="1.0" encoding="UTF-8"?>
<svg id="lowercase" xmlns="http://www.w3.org/2000/svg" version="1.1" viewBox="0 0 478 414.28">
  <!-- Generator: Adobe Illustrator 30.2.1, SVG Export Plug-In . SVG Version: 2.1.1 Build 1)  -->
  <defs>
    <style>
      .st0 {
        fill: #231f20;
      }

      .st1 {
        fill: #f68c45;
      }

      .st2 {
        stroke: #2e6bae;
      }

      .st2, .st3 {
        fill: none;
        stroke-miterlimit: 10;
      }

      .st3 {
        stroke: #f68c45;
      }

      .st4 {
        fill: #2e6bae;
      }
    </style>
  </defs>
  <g>
    <ellipse class="st4" cx="155.68" cy="239.77" rx="38.06" ry="28.78"/>
    <path class="st0" d="M180.95,198.38c0-9.8-1.19-14.58-4.3-19.12-4.06-5.5-11.95-8.6-21.99-8.6-11.71,0-21.75,4.3-28.68,12.19l-13.14-10.04c10.28-11.95,24.62-17.92,43.5-17.92s31.79,5.97,38.48,17.45c3.82,6.93,5.02,14.1,5.02,28.92v76h-15.06l-1.43-8.6c-7.65,7.89-16.73,10.75-34.89,10.75-30.83,0-42.06-9.56-42.06-35.61,0-27.72,11.47-37.04,45.65-37.04h28.92v-8.36ZM153.94,221.09c-21.27,0-29.4,6.21-29.4,22.23s6.93,20.31,28.2,20.31c13.14,0,20.55-2.39,24.86-7.89,2.63-3.35,3.35-6.93,3.35-16.01v-18.64h-27.01Z"/>
    <circle class="st2" cx="122.25" cy="174.75" r="14.66"/>
  </g>
  <g>
    <ellipse class="st1" cx="328.39" cy="236.78" rx="38.06" ry="28.78"/>
    <path class="st0" d="M378.85,278.74h-24.14v-12.43c-8.6,8.6-20.79,15.06-34.42,15.06-20.31,0-43.5-11.47-43.5-42.3,0-27.96,21.51-40.63,49.95-40.63,11.71,0,21.03,1.67,27.96,4.78v-9.32c0-13.62-8.37-21.27-23.66-21.27-12.91,0-22.94,2.39-32.74,7.89l-9.56-18.64c11.95-7.41,25.33-11.23,43.02-11.23,27.96,0,47.08,13.62,47.08,42.06v86.04ZM354.71,243.13v-17.92c-6.69-3.35-15.3-5.5-28.68-5.5-15.77,0-25.81,7.17-25.81,18.64,0,12.43,7.89,20.79,24.14,20.79,13.14,0,24.62-8.13,30.35-16.01Z"/>
    <circle class="st3" cx="295.74" cy="170.48" r="14.66"/>
  </g>
  <g>
    <path class="st0" d="M107.05,127.79c0,1.92.08,1.94,1.26,2.12l.53.08c.14.12.14.52-.04.58-.92-.04-1.85-.06-2.72-.06-1,0-1.91.02-2.85.06-.18-.06-.18-.46-.04-.58l.53-.08c1.18-.18,1.26-.2,1.26-2.12v-6.34c0-1.32-.06-1.8-.94-1.9l-.95-.1c-.12-.1-.12-.4-.02-.48,1.63-.32,3.01-.8,3.82-1.26.12.02.2.08.22.18-.04.42-.06,1.62-.06,2.42v7.48Z"/>
    <path class="st0" d="M118.94,126.73c-.47,0-.49.04-.49.5v.9c0,1.42.08,1.72.75,1.8l.49.06c.14.1.12.5-.04.58-.89-.04-1.55-.06-2.28-.06-1.04,0-1.81.02-2.64.06-.16-.08-.18-.44-.04-.58l.95-.12c.67-.08.75-.36.75-1.74v-.84c0-.56-.02-.56-.47-.56h-4.51c-.22-.06-.35-.34-.29-.56l6.55-9.52c.12-.16.24-.24.43-.26h.53c.29,0,.43.12.24.38l-6.12,8.62c-.24.34.04.44.63.44h2.46c.53,0,.55-.02.55-.54v-3.3c0-.3.02-.42.24-.54.2-.12,1.24-.5,1.54-.5s.29.22.29.62v3.78c0,.46,0,.48.49.48h1.22c.2.16.22.74,0,.9h-1.22Z"/>
    <path class="st0" d="M127.44,128.79c1.42,0,1.75-.16,2.36-1.26.14-.08.41-.04.49.12-.28,1.48-.67,2.52-.96,2.92-.77-.04-1.57-.06-2.48-.06h-3.25c-1.1,0-1.75.02-2.17.06-.12-.08-.18-.2-.12-.36,1.06-.96,1.75-1.58,2.95-2.86,1.5-1.56,2.85-3.5,2.85-5.6,0-1.6-.91-2.76-2.34-2.76-1.12,0-1.81.72-2.42,1.76-.24.04-.47-.06-.51-.3.73-1.76,2.28-2.74,4.11-2.74,2.11,0,3.43,1.44,3.43,3.32,0,1.28-.55,2.56-2.32,4.46l-1.61,1.72c-.85.9-.92,1.16-.92,1.3,0,.16.1.28.61.28h2.3Z"/>
    <path class="st0" d="M137.64,120.43c0,1.72-1.26,2.7-2.78,2.7s-2.78-.98-2.78-2.7,1.26-2.72,2.78-2.72,2.78,1.08,2.78,2.72ZM133.35,120.43c0,1.1.61,1.88,1.52,1.88s1.52-.78,1.52-1.88-.61-1.9-1.52-1.9-1.52.78-1.52,1.9Z"/>
  </g>
  <g>
    <path class="st0" d="M275.77,127.79c0,1.92.08,1.94,1.26,2.12l.53.08c.14.12.14.52-.04.58-.92-.04-1.85-.06-2.72-.06-1,0-1.91.02-2.85.06-.18-.06-.18-.46-.04-.58l.53-.08c1.18-.18,1.26-.2,1.26-2.12v-6.34c0-1.32-.06-1.8-.94-1.9l-.95-.1c-.12-.1-.12-.4-.02-.48,1.63-.32,3.01-.8,3.82-1.26.12.02.2.08.22.18-.04.42-.06,1.62-.06,2.42v7.48Z"/>
    <path class="st0" d="M285.81,127.79c0,1.92.08,1.94,1.26,2.12l.53.08c.14.12.14.52-.04.58-.92-.04-1.85-.06-2.72-.06-1,0-1.91.02-2.85.06-.18-.06-.18-.46-.04-.58l.53-.08c1.18-.18,1.26-.2,1.26-2.12v-6.34c0-1.32-.06-1.8-.94-1.9l-.95-.1c-.12-.1-.12-.4-.02-.48,1.63-.32,3.01-.8,3.82-1.26.12.02.2.08.22.18-.04.42-.06,1.62-.06,2.42v7.48Z"/>
    <path class="st0" d="M296.61,117.99c1.08,0,2.34,0,2.58-.06.08.04.14.1.14.24-.47.76-1.1,1.82-1.93,3.46l-5.12,10.12c-.33.04-.83-.12-.85-.46l5.04-9.72c.39-.76.65-1.5.65-1.66,0-.1-.12-.2-.45-.2h-4c-.96,0-1.63.1-2.05.92-.14.1-.43.06-.49-.14.3-.94.49-1.8.67-2.56.39.04,1.02.06,2.09.06h3.72Z"/>
    <path class="st0" d="M306.35,120.43c0,1.72-1.26,2.7-2.78,2.7s-2.78-.98-2.78-2.7,1.26-2.72,2.78-2.72,2.78,1.08,2.78,2.72ZM302.06,120.43c0,1.1.61,1.88,1.52,1.88s1.52-.78,1.52-1.88-.61-1.9-1.52-1.9-1.52.78-1.52,1.9Z"/>
  </g>
</svg>