<?xml version="1.0" encoding="UTF-8"?>
<svg id="lowercase" xmlns="http://www.w3.org/2000/svg" version="1.1" viewBox="0 0 478 414.28">
  <!-- Generator: Adobe Illustrator 30.2.1, SVG Export Plug-In . SVG Version: 2.1.1 Build 1)  -->
  <defs>
    <style>
      .st0 {
        fill: #231f20;
      }

      .st1 {
        fill: #f68c45;
      }

      .st2 {
        stroke: #2e6bae;
      }

      .st2, .st3 {
        fill: none;
        stroke-miterlimit: 10;
      }

      .st3 {
        stroke: #f68c45;
      }

      .st4 {
        fill: #2e6bae;
      }
    </style>
  </defs>
  <g>
    <ellipse class="st4" cx="153.87" cy="229.66" rx="38.06" ry="56.06"/>
    <path class="st0" d="M185.36,280.08c-7.88,8.11-17.9,11.45-33.17,11.45-30.78,0-44.86-16.7-44.86-52.97v-18.13c0-36.51,14.08-53.21,45.34-53.21,16.23,0,26.72,3.82,35.08,13.12l1.43-10.74h14.79v119.79c0,37.46-16.94,55.84-51.06,55.84-19.8,0-32.69-5.73-41.76-18.85l14.08-8.59c6.92,8.59,14.56,12.17,26.96,12.17,22.19,0,32.21-11.93,32.93-38.66l.24-11.21ZM126.18,237.37c0,26.01,9.31,38.42,29.11,38.42s29.83-12.17,29.83-36.51v-19.57c0-24.34-10.02-36.75-29.83-36.75s-29.11,12.41-29.11,38.66v15.75Z"/>
    <circle class="st2" cx="115.81" cy="320.53" r="14.66"/>
  </g>
  <g>
    <ellipse class="st1" cx="331.32" cy="226.32" rx="38.06" ry="56.06"/>
    <path class="st0" d="M385.51,276.99c0,38.18-13.84,56.55-59.18,57.98l-8.35-18.61c35.31-1.67,42.95-11.22,42.95-37.22v-2.15c-9.07,8.35-19.33,14.56-32.45,14.56-26.73,0-48.2-19.57-48.2-67.29,0-42.95,23.62-63.23,49.39-63.23,12.65,0,24.58,6.68,31.26,14.32v-11.69h24.58v113.34ZM361.41,252.89v-52.73c-5.49-7.4-16.94-16.46-29.35-16.46-17.66,0-27.2,13.36-27.2,39.85,0,31.5,10.02,45.34,28.16,45.34,11.69,0,21.95-7.87,28.4-15.99Z"/>
    <circle class="st3" cx="323.3" cy="324.27" r="14.66"/>
  </g>
  <g>
    <path class="st0" d="M82.33,352.46c0,.82-.31,1.64-2.11,2.54-.12.14-.04.28.24.3,1.5.14,2.85,1.16,2.85,3.14,0,3.22-3.41,5.68-6.36,5.68-.93,0-1.95-.42-1.95-1.3,0-.52.39-.94.92-.94s.93.54,1.08.74c.35.44.65.64,1.08.64.92,0,2.93-1.4,2.93-3.84,0-1.68-.83-3.04-2.5-3.04-.75,0-1.46.4-1.91.82-.32-.04-.57-.48-.43-.82,1.28-.58,3.9-1.34,3.9-3.38,0-1.12-.69-1.7-1.54-1.7-.96,0-1.75.62-2.42,1.66-.2.1-.39-.08-.43-.32.65-1.48,2.11-2.44,3.7-2.44,1.81,0,2.93.98,2.93,2.26Z"/>
    <path class="st0" d="M90.95,361.28c1.42,0,1.75-.16,2.36-1.26.14-.08.41-.04.49.12-.28,1.48-.67,2.52-.96,2.92-.77-.04-1.57-.06-2.48-.06h-3.25c-1.1,0-1.75.02-2.17.06-.12-.08-.18-.2-.12-.36,1.06-.96,1.75-1.58,2.95-2.86,1.5-1.56,2.85-3.5,2.85-5.6,0-1.6-.91-2.76-2.34-2.76-1.12,0-1.81.72-2.42,1.76-.24.04-.47-.06-.51-.3.73-1.76,2.28-2.74,4.11-2.74,2.11,0,3.43,1.44,3.43,3.32,0,1.28-.55,2.56-2.32,4.46l-1.61,1.72c-.85.9-.92,1.16-.92,1.3,0,.16.1.28.61.28h2.3Z"/>
    <path class="st0" d="M101.15,352.92c0,1.72-1.26,2.7-2.78,2.7s-2.78-.98-2.78-2.7,1.26-2.72,2.78-2.72,2.78,1.08,2.78,2.72ZM96.86,352.92c0,1.1.61,1.88,1.52,1.88s1.52-.78,1.52-1.88-.61-1.9-1.52-1.9-1.52.78-1.52,1.9Z"/>
  </g>
  <g>
    <path class="st0" d="M285.52,360.28c0,1.92.08,1.94,1.26,2.12l.53.08c.14.12.14.52-.04.58-.92-.04-1.85-.06-2.72-.06-1,0-1.91.02-2.85.06-.18-.06-.18-.46-.04-.58l.53-.08c1.18-.18,1.26-.2,1.26-2.12v-6.34c0-1.32-.06-1.8-.94-1.9l-.95-.1c-.12-.1-.12-.4-.02-.48,1.63-.32,3.01-.8,3.82-1.26.12.02.2.08.22.18-.04.42-.06,1.62-.06,2.42v7.48Z"/>
    <path class="st0" d="M295.56,360.28c0,1.92.08,1.94,1.26,2.12l.53.08c.14.12.14.52-.04.58-.92-.04-1.85-.06-2.72-.06-1,0-1.91.02-2.85.06-.18-.06-.18-.46-.04-.58l.53-.08c1.18-.18,1.26-.2,1.26-2.12v-6.34c0-1.32-.06-1.8-.94-1.9l-.95-.1c-.12-.1-.12-.4-.02-.48,1.63-.32,3.01-.8,3.82-1.26.12.02.2.08.22.18-.04.42-.06,1.62-.06,2.42v7.48Z"/>
    <path class="st0" d="M307.45,359.22c-.47,0-.49.04-.49.5v.9c0,1.42.08,1.72.75,1.8l.49.06c.14.1.12.5-.04.58-.89-.04-1.55-.06-2.28-.06-1.04,0-1.81.02-2.64.06-.16-.08-.18-.44-.04-.58l.95-.12c.67-.08.75-.36.75-1.74v-.84c0-.56-.02-.56-.47-.56h-4.51c-.22-.06-.35-.34-.29-.56l6.55-9.52c.12-.16.24-.24.43-.26h.53c.29,0,.43.12.24.38l-6.12,8.62c-.24.34.04.44.63.44h2.46c.53,0,.55-.02.55-.54v-3.3c0-.3.02-.42.24-.54.2-.12,1.24-.5,1.54-.5s.29.22.29.62v3.78c0,.46,0,.48.49.48h1.22c.2.16.22.74,0,.9h-1.22Z"/>
    <path class="st0" d="M316.11,352.92c0,1.72-1.26,2.7-2.78,2.7s-2.78-.98-2.78-2.7,1.26-2.72,2.78-2.72,2.78,1.08,2.78,2.72ZM311.82,352.92c0,1.1.61,1.88,1.52,1.88s1.52-.78,1.52-1.88-.61-1.9-1.52-1.9-1.52.78-1.52,1.9Z"/>
  </g>
</svg>