<?xml version="1.0" encoding="UTF-8"?>
<svg id="lowercase" xmlns="http://www.w3.org/2000/svg" version="1.1" viewBox="0 0 478 414.28">
  <!-- Generator: Adobe Illustrator 30.2.1, SVG Export Plug-In . SVG Version: 2.1.1 Build 1)  -->
  <defs>
    <style>
      .st0 {
        fill: #231f20;
      }

      .st1 {
        fill: #f68c45;
      }

      .st2 {
        stroke: #2e6bae;
      }

      .st2, .st3 {
        fill: none;
        stroke-miterlimit: 10;
      }

      .st3 {
        stroke: #f68c45;
      }

      .st4 {
        fill: #2e6bae;
      }
    </style>
  </defs>
  <ellipse class="st4" cx="154.62" cy="211.93" rx="38.06" ry="53.62"/>
  <path class="st0" d="M183.23,264.08c-8.6,7.65-18.64,10.99-32.98,10.99-31.07,0-45.17-16.73-45.17-53.06v-18.16c0-36.57,14.1-53.3,45.17-53.3,15.77,0,27.01,4.06,34.89,12.43l1.91-10.04h14.82v173.75h-18.88l.24-62.62ZM123.96,220.82c0,26.05,9.56,38.48,29.16,38.48s29.87-12.19,29.87-36.57v-19.6c0-24.62-10.04-36.81-29.87-36.81s-29.16,12.43-29.16,38.72v15.77Z"/>
  <circle class="st2" cx="192.68" cy="321.98" r="14.66"/>
  <g>
    <ellipse class="st1" cx="318.55" cy="210.68" rx="38.06" ry="56.06"/>
    <path class="st0" d="M371.14,307.58l-24.38,12.67v-58.08c-9.08,8.37-19.6,14.58-32.74,14.58-27.01,0-48.28-19.6-48.28-67.4,0-43.02,23.42-63.33,49.47-63.33,12.67,0,24.62,6.69,31.55,14.34v-11.71h24.38v158.93ZM347,238.03v-52.82c-5.5-7.41-16.97-16.49-29.4-16.49-17.69,0-27.25,13.38-27.25,39.91,0,31.55,10.04,45.41,28.2,45.41,11.71,0,21.99-7.89,28.44-16.01Z"/>
    <circle class="st3" cx="356.61" cy="312.45" r="17.11"/>
  </g>
  <g>
    <path class="st0" d="M192.98,364.59c0,3.14-1.2,6.54-4.23,6.54s-4.23-3.4-4.23-6.54,1.2-6.54,4.23-6.54,4.23,3.52,4.23,6.54ZM186.84,364.59c0,1.88.2,5.74,1.91,5.74s1.91-3.86,1.91-5.74-.2-5.74-1.91-5.74-1.91,3.86-1.91,5.74Z"/>
    <path class="st0" d="M200.48,360.76c0,1.72-1.26,2.7-2.78,2.7s-2.78-.98-2.78-2.7,1.26-2.72,2.78-2.72,2.78,1.08,2.78,2.72ZM196.19,360.76c0,1.1.61,1.88,1.52,1.88s1.52-.78,1.52-1.88-.61-1.9-1.52-1.9-1.52.78-1.52,1.9Z"/>
  </g>
  <g>
    <path class="st0" d="M354.99,369.13c1.42,0,1.75-.16,2.36-1.26.14-.08.41-.04.49.12-.28,1.48-.67,2.52-.96,2.92-.77-.04-1.57-.06-2.48-.06h-3.25c-1.1,0-1.75.02-2.17.06-.12-.08-.18-.2-.12-.36,1.06-.96,1.75-1.58,2.95-2.86,1.5-1.56,2.85-3.5,2.85-5.6,0-1.6-.91-2.76-2.34-2.76-1.12,0-1.81.72-2.42,1.76-.24.04-.47-.06-.51-.3.73-1.76,2.28-2.74,4.11-2.74,2.11,0,3.43,1.44,3.43,3.32,0,1.28-.55,2.56-2.32,4.46l-1.61,1.72c-.85.9-.92,1.16-.92,1.3,0,.16.1.28.61.28h2.3Z"/>
    <path class="st0" d="M365.49,358.32c1.08,0,2.34,0,2.58-.06.08.04.14.1.14.24-.47.76-1.1,1.82-1.93,3.46l-5.12,10.12c-.33.04-.83-.12-.85-.46l5.04-9.72c.39-.76.65-1.5.65-1.66,0-.1-.12-.2-.45-.2h-4c-.96,0-1.63.1-2.05.92-.14.1-.43.06-.49-.14.3-.94.49-1.8.67-2.56.39.04,1.02.06,2.09.06h3.72Z"/>
    <path class="st0" d="M375.23,360.76c0,1.72-1.26,2.7-2.78,2.7s-2.78-.98-2.78-2.7,1.26-2.72,2.78-2.72,2.78,1.08,2.78,2.72ZM370.94,360.76c0,1.1.61,1.88,1.52,1.88s1.52-.78,1.52-1.88-.61-1.9-1.52-1.9-1.52.78-1.52,1.9Z"/>
  </g>
</svg>