<?xml version="1.0" encoding="UTF-8"?>
<svg id="lowercase" xmlns="http://www.w3.org/2000/svg" version="1.1" viewBox="0 0 478 414.28">
  <!-- Generator: Adobe Illustrator 30.2.1, SVG Export Plug-In . SVG Version: 2.1.1 Build 1)  -->
  <defs>
    <style>
      .st0 {
        fill: #231f20;
      }

      .st1 {
        fill: #f68c45;
      }

      .st2, .st3, .st4, .st5 {
        fill: none;
        stroke-miterlimit: 10;
      }

      .st2, .st4 {
        stroke: #f68c45;
      }

      .st2, .st5 {
        stroke-width: .86px;
      }

      .st3, .st5 {
        stroke: #2e6bae;
      }

      .st6 {
        fill: #2e6bae;
      }
    </style>
  </defs>
  <path class="st0" d="M353.59,129.53c-5.73-1.67-10.02-2.39-14.32-2.39-8.11,0-11.45,3.1-11.45,12.17v14.32h23.15v22.91h-23.15v102.37h-24.58v-102.37h-16.22v-22.91h16.22v-16.46c0-22.91,14.08-31.5,31.74-31.5,6.44,0,13.36.96,18.61,2.39v21.48Z"/>
  <path class="st0" d="M156.13,174.87v-15.75h14.79v-19.33c0-24.34,8.11-31.74,33.65-31.26h10.98v15.51h-6.92c-15.03-.48-18.85,3.1-18.85,18.13v16.94h27.2v15.75h-27.2v104.04h-18.85v-104.04h-14.79Z"/>
  <line class="st4" x1="361.14" y1="153.81" x2="361.14" y2="176.53"/>
  <line class="st3" x1="227.13" y1="159.16" x2="227.13" y2="174.93"/>
  <path class="st1" d="M327.82,139.59v-.27c0-9.07,3.34-12.17,11.45-12.17,4.29,0,8.59.72,14.32,2.39v-21.48c-5.25-1.43-12.17-2.39-18.61-2.39-17.66,0-31.74,8.59-31.74,31.5v2.42h24.58Z"/>
  <path class="st6" d="M189.81,139.59c.46-12.85,4.68-15.99,18.81-15.54h6.92v-15.51h-10.98c-25.46-.48-33.59,6.88-33.64,31.05h18.89Z"/>
  <line class="st5" x1="221.84" y1="159.46" x2="232.41" y2="159.46"/>
  <line class="st2" x1="355.85" y1="154.06" x2="366.43" y2="154.06"/>
  <line class="st2" x1="355.85" y1="176.24" x2="366.43" y2="176.24"/>
  <line class="st5" x1="221.84" y1="174.49" x2="232.41" y2="174.49"/>
</svg>