<?xml version="1.0" encoding="UTF-8"?>
<svg id="lowercase" xmlns="http://www.w3.org/2000/svg" version="1.1" viewBox="0 0 478 414.28">
  <!-- Generator: Adobe Illustrator 30.2.1, SVG Export Plug-In . SVG Version: 2.1.1 Build 1)  -->
  <defs>
    <style>
      .st0 {
        fill: #231f20;
      }

      .st1 {
        fill: #f68c45;
      }

      .st2 {
        stroke: #2e6bae;
      }

      .st2, .st3 {
        fill: none;
        stroke-miterlimit: 10;
      }

      .st3 {
        stroke: #f68c45;
      }

      .st4 {
        fill: #2e6bae;
      }
    </style>
  </defs>
  <g>
    <path class="st0" d="M124.24,294.88c0,.82-.31,1.64-2.11,2.54-.12.14-.04.28.23.3,1.5.14,2.86,1.16,2.86,3.14,0,3.22-3.41,5.68-6.36,5.68-.93,0-1.95-.42-1.95-1.3,0-.52.39-.94.92-.94s.93.54,1.08.74c.35.44.65.64,1.08.64.93,0,2.93-1.4,2.93-3.84,0-1.68-.83-3.04-2.5-3.04-.75,0-1.46.4-1.91.82-.31-.04-.57-.48-.43-.82,1.28-.58,3.9-1.34,3.9-3.38,0-1.12-.69-1.7-1.54-1.7-.96,0-1.75.62-2.42,1.66-.2.1-.39-.08-.43-.32.65-1.48,2.11-2.44,3.7-2.44,1.81,0,2.93.98,2.93,2.26Z"/>
    <path class="st0" d="M134.39,301.64c-.47,0-.49.04-.49.5v.9c0,1.42.08,1.72.75,1.8l.49.06c.14.1.12.5-.04.58-.88-.04-1.55-.06-2.28-.06-1.04,0-1.81.02-2.64.06-.16-.08-.18-.44-.04-.58l.95-.12c.67-.08.75-.36.75-1.74v-.84c0-.56-.02-.56-.47-.56h-4.51c-.21-.06-.35-.34-.29-.56l6.55-9.52c.12-.16.24-.24.43-.26h.53c.29,0,.43.12.24.38l-6.12,8.62c-.24.34.04.44.63.44h2.46c.53,0,.55-.02.55-.54v-3.3c0-.3.02-.42.24-.54.2-.12,1.24-.5,1.54-.5s.29.22.29.62v3.78c0,.46,0,.48.49.48h1.22c.2.16.22.74,0,.9h-1.22Z"/>
    <path class="st0" d="M143.06,295.34c0,1.72-1.26,2.7-2.78,2.7s-2.78-.98-2.78-2.7,1.26-2.72,2.78-2.72,2.78,1.08,2.78,2.72ZM138.76,295.34c0,1.1.61,1.88,1.52,1.88s1.52-.78,1.52-1.88-.61-1.9-1.52-1.9-1.52.78-1.52,1.9Z"/>
  </g>
  <g>
    <path class="st0" d="M295.7,292.34c.12.02.18.1.18.18-.12.54-.37,1.18-.77,1.64l-4.08.54c-.55.08-.59.12-.71.56l-.2.72c-.06.22.02.32.39.38l1.38.24c1.56.28,4.41,1.12,4.41,4.26,0,3.58-4.21,5.8-7.38,5.92-.24-.12-.32-.48-.14-.68,2.78-.34,5.59-1.76,5.59-4.52s-2.85-3.44-5.04-3.5c-.41-.02-.47-.1-.33-.62l1.06-3.9c.08-.32.2-.5.51-.54l5.12-.68Z"/>
    <path class="st0" d="M302.51,292.62c1.4,0,2.5.64,3.21,1.56.73.92,1.06,2.2,1.02,3.84-.06,2.08-.83,4.52-3.15,6.4-1.57,1.3-3.5,1.96-4.78,2.2-.18-.08-.28-.44-.14-.6,1.16-.38,2.13-.94,2.79-1.46,1.58-1.24,2.82-3.22,2.89-6.88.06-2.3-.57-4.26-2.03-4.26-.87,0-1.69.84-1.75,2.52-.04,1.6.77,3.36,1.99,3.36.32,0,.49-.04.65-.08.16.06.22.28.16.46-.51.36-1.12.54-1.87.54-1.67,0-3.15-1.3-3.09-3.54.08-2.52,1.99-4.06,4.09-4.06Z"/>
    <path class="st0" d="M314.38,295.34c0,1.72-1.26,2.7-2.78,2.7s-2.78-.98-2.78-2.7,1.26-2.72,2.78-2.72,2.78,1.08,2.78,2.72ZM310.09,295.34c0,1.1.61,1.88,1.52,1.88s1.52-.78,1.52-1.88-.61-1.9-1.52-1.9-1.52.78-1.52,1.9Z"/>
  </g>
  <path class="st0" d="M137.06,255.06c8.37,8.6,16.49,11.71,32.27,11.71,20.31,0,30.35-6.69,30.35-20.08,0-6.93-2.87-12.19-8.13-14.82-4.78-2.39-7.89-3.11-22.23-5.02-16.49-2.39-24.14-4.78-29.88-9.8-6.45-5.5-9.56-13.14-9.56-23.42,0-22.94,14.34-35.61,39.67-35.61,20.31,0,34.18,5.97,43.5,19.12l-14.34,8.84c-7.41-8.84-14.82-12.19-27.72-12.19-14.82,0-22.94,6.69-22.94,18.88,0,5.98,2.63,10.99,7.41,13.86,4.06,2.15,8.13,3.11,18.88,4.54,18.4,2.63,26.29,4.78,32.74,9.56,6.93,5.02,10.75,14.58,10.75,26.53,0,23.66-15.77,35.37-47.8,35.37-22.47,0-38.48-6.45-46.84-18.64l13.86-8.84Z"/>
  <circle class="st2" cx="130.92" cy="260.29" r="14.66"/>
  <path class="st4" d="M139.41,217.15c5.73,5.01,13.36,7.4,29.83,9.78,14.32,1.91,17.42,2.62,22.19,5.01,5.25,2.62,8.11,7.88,8.11,14.79,0,4.91-1.36,8.92-4.08,12.02l11.75,13.86c6.99-5.86,10.46-14.31,10.46-25.4,0-11.93-3.82-21.48-10.74-26.49-6.44-4.77-14.32-6.92-32.69-9.54-10.74-1.43-14.79-2.39-18.85-4.53-4.77-2.86-7.4-7.88-7.4-13.84,0-4.14.96-7.62,2.78-10.45l-15.22-9.65c-3.74,5.54-5.69,12.59-5.69,21.05,0,10.26,3.1,17.9,9.54,23.38Z"/>
  <g>
    <path class="st0" d="M390.64,245.51c0,27.72-22.47,37.04-47.08,37.04-16.97,0-35.37-6.69-48.04-16.01l11.23-18.64c11.71,8.13,24.86,12.43,36.57,12.43,15.54,0,22.94-5.02,22.94-13.86,0-9.56-10.99-14.1-29.16-21.03-27.01-10.52-36.81-19.6-36.81-39.44,0-22.47,17.69-34.18,42.78-34.18,15.77,0,31.31,5.74,42.54,13.86l-10.75,18.88c-10.28-7.17-20.55-10.75-32.5-10.75s-17.21,4.78-17.21,11.47c0,6.21,4.3,10.75,23.18,18.16,27.96,10.75,42.3,18.4,42.3,42.06Z"/>
    <circle class="st3" cx="302.25" cy="257.54" r="14.66"/>
    <path class="st1" d="M337.02,225.54c18.13,6.92,29.11,11.45,29.11,21,0,.62-.05,1.23-.12,1.81l18.32,18.32c3.87-5.37,6.14-12.3,6.14-21.09,0-23.62-14.32-31.26-42.24-42-18.85-7.4-23.15-11.93-23.15-18.13,0-1.16.17-2.25.49-3.28l-20.51-13.75c-3.09,4.86-4.8,10.79-4.8,17.75,0,19.8,9.78,28.87,36.75,39.37Z"/>
  </g>
</svg>