<?xml version="1.0" encoding="UTF-8"?>
<svg id="lowercase" xmlns="http://www.w3.org/2000/svg" version="1.1" viewBox="0 0 478 414.28">
  <!-- Generator: Adobe Illustrator 30.2.1, SVG Export Plug-In . SVG Version: 2.1.1 Build 1)  -->
  <defs>
    <style>
      .st0 {
        fill: #231f20;
      }

      .st1 {
        fill: #f68c45;
      }

      .st2 {
        fill: #2e6bae;
      }
    </style>
  </defs>
  <path class="st0" d="M372.36,164.25l-63.1,169.69h-26.05l18.16-46.6-46.13-123.08h27.01l20.55,61.42c3.58,10.99,9.56,29.64,10.99,36.57,2.15-7.41,7.41-25.33,11.23-36.09l21.27-61.9h26.05Z"/>
  <path class="st0" d="M122.43,164.93h19.12l35.13,98.47,31.31-98.47h19.12l-47.08,139.34c-10.99,30.35-17.45,35.37-48.52,35.61v-16.01c17.93,0,22.23-3.11,29.16-21.51l5.97-17.69-44.21-119.74Z"/>
  <path class="st2" d="M166.56,284.91l-5.95,17.62c-6.92,18.37-11.21,21.48-29.11,21.48v15.99c31.02-.24,37.46-5.25,48.44-35.55l6.6-19.53h-19.97Z"/>
  <polygon class="st1" points="301.25 287.31 301.29 287.4 283.15 333.93 309.16 333.93 326.49 287.31 301.25 287.31"/>
</svg>