<?xml version="1.0" encoding="UTF-8"?>
<svg id="Layer_1" data-name="Layer 1" xmlns="http://www.w3.org/2000/svg" viewBox="0 0 478.08 414">
  <defs>
    <style>
      .cls-1 {
        stroke: #2d6bae;
      }

      .cls-1, .cls-2 {
        fill: none;
        stroke-miterlimit: 10;
      }

      .cls-3 {
        fill: #231f20;
      }

      .cls-2 {
        stroke: #f68c43;
      }

      .cls-4 {
        fill: #2d6bae;
      }

      .cls-5 {
        fill: #f68c43;
      }
    </style>
  </defs>
  <path class="cls-4" d="M127.65,153.11l4.6,31.29s46.16,16.55,45.92-26.78c-.24-43.34-49.67-34.09-50.52-4.51Z"/>
  <path class="cls-4" d="M132.26,203.72l-7.59,37.73s-2.85,30.72,28.25,25.79,37.43-43.4,23.8-57.28c-13.63-13.88-44.46-6.24-44.46-6.24Z"/>
  <path class="cls-5" d="M289.79,155.87l24.62,29.22s41,13.18,42.47-23.09c1.46-36.28-37.74-30.92-50.4-24.59-12.66,6.33-16.69,18.46-16.69,18.46Z"/>
  <path class="cls-5" d="M314.41,208.55l-30.6,32.21s12.44,29.57,49.45,22.03c37.01-7.55,35.2-35.23,28.24-45.04-11.44-16.13-47.09-9.2-47.09-9.2Z"/>
  <path class="cls-3" d="M383.66,232.7c0,32.9-22.55,50.39-60.28,50.39-22.78,0-46.71-10.12-57.98-26.69l18.41-15.65c9.89,12.42,25.08,18.41,39.57,18.41,25.77,0,35.2-9.89,35.2-26.46s-12.42-24.16-29.22-24.16h-14.95v-23.47h14.72c14.95,0,22.78-9.89,22.78-22.09,0-9.2-6.67-22.09-30.37-22.09-12.65,0-22.78,5.52-31.75,14.95l-17.95-17.03c13.57-14.03,29.91-21.86,50.16-21.86,30.37,0,54.99,15.64,54.99,43.71,0,19.33-8.51,28.99-19.56,35.2,15.18,4.37,26.23,16.8,26.23,36.81Z"/>
  <path class="cls-3" d="M132.26,184.39h13.11c16.79,0,27.61-9.89,27.61-25.54s-8.28-24.85-22.32-24.85c-12.19,0-20.48,6.9-23.01,19.1l-21.86-1.84c2.76-24.85,18.18-37.27,46.01-37.27,29.45,0,45.55,15.65,45.55,44.17,0,17.72-5.29,27.38-19.79,35.66,17.25,9.2,23.93,20.71,23.93,41.41,0,31.29-17.26,47.62-50.16,47.62-30.6,0-47.39-12.88-49.93-38.65l23.24-2.76c2.3,14.03,11.04,21.4,26,21.4,16.8,0,26.46-10.35,26.46-28.3s-12.42-30.83-30.14-30.83h-14.72v-19.33Z"/>
  <g>
    <path class="cls-3" d="M252.98,226.78c-.46,0-.48.04-.48.48v.86c0,1.36.08,1.65.73,1.72l.48.06c.13.1.11.48-.04.56-.86-.04-1.51-.06-2.22-.06-1.02,0-1.76.02-2.57.06-.15-.08-.17-.42-.04-.56l.92-.12c.65-.08.73-.34.73-1.67v-.81c0-.54-.02-.54-.46-.54h-4.39c-.21-.06-.35-.33-.29-.54l6.38-9.12c.12-.15.23-.23.42-.25h.52c.29,0,.42.11.23.36l-5.96,8.26c-.23.33.04.42.61.42h2.4c.52,0,.54-.02.54-.52v-3.16c0-.29.02-.4.23-.52.19-.12,1.21-.48,1.5-.48s.29.21.29.59v3.62c0,.44,0,.46.48.46h1.19c.19.15.21.71,0,.86h-1.19Z"/>
    <path class="cls-3" d="M260.95,227.8c0,1.84.08,1.86,1.23,2.03l.52.08c.13.12.13.5-.04.56-.9-.04-1.8-.06-2.64-.06-.98,0-1.86.02-2.78.06-.17-.06-.17-.44-.04-.56l.52-.08c1.15-.17,1.23-.19,1.23-2.03v-6.08c0-1.26-.06-1.72-.92-1.82l-.92-.1c-.11-.1-.11-.38-.02-.46,1.59-.31,2.93-.77,3.72-1.21.12.02.19.08.21.17-.04.4-.06,1.55-.06,2.32v7.17Z"/>
    <path class="cls-3" d="M271.19,220.75c0,1.65-1.23,2.59-2.7,2.59s-2.7-.94-2.7-2.59,1.23-2.61,2.7-2.61,2.7,1.04,2.7,2.61ZM267.01,220.75c0,1.05.59,1.8,1.48,1.8s1.48-.75,1.48-1.8-.59-1.82-1.48-1.82-1.48.75-1.48,1.82Z"/>
  </g>
  <g>
    <path class="cls-3" d="M86.56,220.76c0,1.5-1.26,2.17-2.13,2.76,1.19.65,2.51,1.74,2.51,3.57,0,2.22-1.96,3.32-4.04,3.32-1.88,0-3.89-.88-3.89-3.09,0-1.48,1.17-2.36,2.53-3.12-1.02-.52-2.19-1.57-2.19-2.99,0-1.99,1.59-3.33,3.79-3.33,1.9,0,3.41,1.02,3.41,2.89ZM84.89,227.76c0-1.49-1.07-2.43-2.68-3.22-.9.71-1.36,1.51-1.36,2.7,0,1.44.9,2.4,2.15,2.4,1.04,0,1.9-.73,1.9-1.88ZM81.25,220.59c0,1.32,1.44,1.99,2.51,2.53.71-.58,1.09-1.32,1.09-2.36s-.65-2.13-1.84-2.13-1.76.92-1.76,1.96Z"/>
    <path class="cls-3" d="M94.4,220.48c0,1.65-1.23,2.59-2.7,2.59s-2.7-.94-2.7-2.59,1.23-2.61,2.7-2.61,2.7,1.04,2.7,2.61ZM90.22,220.48c0,1.05.59,1.8,1.48,1.8s1.48-.75,1.48-1.8-.59-1.82-1.48-1.82-1.48.75-1.48,1.82Z"/>
  </g>
  <circle class="cls-1" cx="102.17" cy="244.86" r="16.62"/>
  <circle class="cls-2" cx="265.4" cy="256.18" r="16.62"/>
</svg>