<?xml version="1.0" encoding="UTF-8"?>
<svg id="Layer_1" xmlns="http://www.w3.org/2000/svg" version="1.1" viewBox="0 0 478.08 414">
  <!-- Generator: Adobe Illustrator 30.2.1, SVG Export Plug-In . SVG Version: 2.1.1 Build 1)  -->
  <defs>
    <style>
      .st0, .st1, .st2 {
        fill: none;
      }

      .st1 {
        stroke: #2d6bae;
      }

      .st1, .st2 {
        stroke-miterlimit: 10;
      }

      .st3 {
        fill: #231f20;
      }

      .st2 {
        stroke: #f68c43;
      }

      .st4 {
        fill: #f68c43;
      }

      .st5 {
        fill: #2d6bae;
      }
    </style>
  </defs>
  <g>
    <path class="st0" d="M309.24,140.99c-24.42,0-37.78,11.52-37.78,29.71,0,19.35,13.59,28.1,36.63,28.1,6,0,11.4-.62,16.14-1.86l-.71-2.29.71,2.29c10.33-2.69,17.45-8.29,20.37-16.84h-1.83,1.83c.99-2.88,1.5-6.09,1.5-9.64,0-15.66-12.67-29.48-36.86-29.48h0Z"/>
    <path class="st3" d="M270.77,261v22.8c53.21-1.6,80.75-29.97,92.6-61.28h-25.43c-12.55,24.48-35.57,37.1-67.17,38.48h0Z"/>
    <path class="st3" d="M308.09,198.81c-23.04,0-36.63-8.75-36.63-28.1,0-18.2,13.36-29.71,37.78-29.71s36.86,13.82,36.86,29.48c0,3.54-.51,6.76-1.5,9.64h26.08c-.66-44.37-27.08-62.62-60.52-62.62-35.47,0-63.11,18.43-63.11,53.67s24.88,50.45,54.13,50.45c12.24,0,21.32-1.53,29.18-4.87l-6.13-19.79c-4.74,1.23-10.14,1.86-16.14,1.86h0Z"/>
    <path class="st4" d="M370.68,180.11h-26.08c-2.93,8.55-10.04,14.16-20.37,16.84l6.13,19.79c4.71-2,8.97-4.66,13.21-8.03-1.54,4.98-3.44,9.56-5.62,13.82h25.43c5.18-13.69,7.37-27.94,7.37-40.76,0-.57-.05-1.09-.06-1.65h-.01Z"/>
  </g>
  <g>
    <path class="st0" d="M155.25,134.54c-16.13,0-23.5,9.44-23.5,29.95s7.37,30.18,23.26,30.18h0v-3.83,3.83c9.31,0,15.67-3.35,19.36-10.16h-1.68,1.68c2.62-4.83,3.9-11.38,3.9-19.79,0-20.27-7.37-30.17-23.04-30.17h.02Z"/>
    <polygon class="st3" points="126.45 281.27 153.86 281.27 184.32 221.61 157.86 221.61 126.45 281.27"/>
    <path class="st5" d="M200.96,184.5h-26.58c-3.69,6.82-10.06,10.16-19.36,10.16v18.32c2.52-.26,5.13-.66,8.06-1.27l-5.22,9.91h26.46l8.47-16.59c4.22-8.2,6.73-14.13,8.17-20.53h0Z"/>
    <path class="st3" d="M155.02,194.67c-15.89,0-23.26-9.45-23.26-30.18s7.37-29.95,23.5-29.95,23.04,9.91,23.04,30.17c0,8.4-1.29,14.96-3.9,19.79h26.58c1.31-5.82,1.74-12.03,1.74-20.7,0-17.05-3-27.87-9.67-35.47-7.83-8.98-21.19-13.82-37.78-13.82-15.43,0-28.33,4.15-36.17,11.29-8.06,7.83-11.75,19.81-11.75,38.7,0,20.73,3.91,32.25,13.36,40.08,7.14,5.76,16.35,8.75,27.64,8.75,2.27,0,4.44-.11,6.68-.34v-18.32h-.01Z"/>
  </g>
  <circle class="st1" cx="140.9" cy="281.27" r="20.96"/>
  <circle class="st2" cx="270.77" cy="272.5" r="20.96"/>
  <line class="st2" x1="247.05" y1="116.76" x2="370.68" y2="116.76"/>
  <line class="st1" x1="107.34" y1="114.23" x2="202.7" y2="114.23"/>
  <line class="st1" x1="202.7" y1="111.83" x2="202.7" y2="116.76"/>
  <line class="st1" x1="107.34" y1="111.83" x2="107.34" y2="116.76"/>
  <line class="st2" x1="247.05" y1="114.3" x2="247.05" y2="119.23"/>
  <line class="st2" x1="370.68" y1="114.3" x2="370.68" y2="119.23"/>
</svg>