<?xml version="1.0" encoding="UTF-8"?>
<svg id="Layer_1" data-name="Layer 1" xmlns="http://www.w3.org/2000/svg" viewBox="0 0 478.08 414">
  <defs>
    <style>
      .cls-1 {
        stroke: #2d6bae;
      }

      .cls-1, .cls-2 {
        fill: none;
        stroke-miterlimit: 10;
      }

      .cls-3 {
        fill: #231f20;
      }

      .cls-2 {
        stroke: #f68c43;
      }

      .cls-4 {
        fill: #2d6bae;
      }

      .cls-5 {
        fill: #f68c43;
      }
    </style>
  </defs>
  <ellipse class="cls-5" cx="321.01" cy="160.8" rx="36.41" ry="24.44"/>
  <ellipse class="cls-5" cx="322.16" cy="232.2" rx="49.52" ry="35.41"/>
  <ellipse class="cls-4" cx="147.67" cy="157.29" rx="26.59" ry="30.62"/>
  <ellipse class="cls-4" cx="150.61" cy="233.97" rx="33.01" ry="35.15"/>
  <path class="cls-3" d="M383.5,233.64c0,31.74-24.84,49.45-63.71,49.45s-62.79-17.71-62.79-49.45c0-19.32,9.89-33.12,28.52-40.02-16.56-6.9-21.62-21.39-21.62-31.05,0-31.05,25.07-45.54,56.58-45.54,28.75,0,56.12,14.03,56.12,45.08,0,9.43-5.06,24.84-21.62,31.51,17.25,6.44,28.52,19.32,28.52,40.02ZM359.12,234.33c0-17.02-12.19-27.6-39.1-27.6s-38.64,10.12-38.64,26.45,14.03,27.83,38.87,27.83,38.87-11.04,38.87-26.68ZM352.22,162.8c0-12.19-8.74-23.69-32.2-23.69s-31.74,10.58-31.74,22.77c0,12.88,12.19,22.08,32.2,22.08s31.74-9.43,31.74-21.16Z"/>
  <path class="cls-3" d="M102.86,159.12c0-30.82,14.26-45.08,45.08-45.08s45.08,14.26,45.08,45.08c0,16.33-3.91,25.76-14.26,34.5,13.34,7.59,18.86,19.09,18.86,40.02,0,34.04-15.41,49.22-49.68,49.22s-49.68-15.18-49.68-49.22c0-20.93,5.29-32.43,18.86-40.02-10.58-9.2-14.26-17.94-14.26-34.5ZM122.64,233.64c0,20.7,7.36,29.21,25.3,29.21s25.3-8.51,25.3-29.21-7.59-29.21-24.84-29.21c-18.17,0-25.76,8.51-25.76,29.21ZM126.09,159.12c0,18.63,6.44,26.45,21.85,26.45s21.85-7.82,21.85-26.45-6.67-26.22-21.62-26.22-22.08,7.59-22.08,26.22Z"/>
  <line class="cls-2" x1="257.49" y1="283.9" x2="388.46" y2="283.9"/>
  <line class="cls-1" x1="99.11" y1="283.66" x2="201.98" y2="283.66"/>
  <line class="cls-1" x1="201.98" y1="281.28" x2="201.98" y2="286.03"/>
  <line class="cls-2" x1="257.49" y1="281.28" x2="257.49" y2="286.03"/>
  <line class="cls-2" x1="388.46" y1="281.52" x2="388.46" y2="286.27"/>
  <line class="cls-1" x1="99.11" y1="281.28" x2="99.11" y2="286.04"/>
</svg>