<?xml version="1.0" encoding="UTF-8"?>
<svg id="Layer_1" data-name="Layer 1" xmlns="http://www.w3.org/2000/svg" viewBox="0 0 478.08 414">
  <defs>
    <style>
      .cls-1 {
        stroke: #2d6bae;
        stroke-miterlimit: 10;
      }

      .cls-1, .cls-2 {
        fill: none;
      }

      .cls-3 {
        fill: #231f20;
      }

      .cls-4 {
        fill: #2d6bae;
      }

      .cls-5 {
        fill: #f68c43;
      }
    </style>
  </defs>
  <g>
    <path class="cls-2" d="M323.2,144.27c-3.04,4.21-9.37,12.64-14.75,19.44l-31.61,40.28c-4.92,6.32-11.94,14.52-15.46,18.27,5.62,0,18.03-.23,26.46-.23h34.66v-47.77c0-9.37.7-23.89.7-29.97Z"/>
    <path class="cls-5" d="M346.64,222.02h-58.79c-8.43,0-20.84.23-26.46.23h-27.63v22.25h88.75l23.89-.7h21.78v-21.78h-21.53Z"/>
    <polygon class="cls-3" points="322.5 280.56 346.39 280.56 346.39 243.79 322.5 244.5 322.5 280.56"/>
    <path class="cls-3" d="M276.83,203.98l31.61-40.28c5.39-6.79,11.71-15.22,14.75-19.44,0,6.09-.7,20.61-.7,29.97v47.77h23.89v-105.38h-28.1l-84.54,104.44v1.17h27.63c3.51-3.75,10.54-11.94,15.46-18.27Z"/>
  </g>
  <g>
    <polygon class="cls-3" points="189.07 112.79 162.61 112.79 109.92 234.56 138.25 229.65 189.07 112.79"/>
    <rect class="cls-3" x="177.13" y="249.78" width="22.71" height="30.21"/>
    <rect class="cls-3" x="177.13" y="182.81" width="22.71" height="46.83"/>
    <polygon class="cls-4" points="199.84 229.65 177.13 229.65 138.25 229.65 109.92 234.56 109.92 249.78 177.13 249.78 199.84 249.78 215.77 249.78 215.77 229.65 199.84 229.65"/>
  </g>
  <circle class="cls-1" cx="189.07" cy="182.69" r="17.01"/>
</svg>