<?xml version="1.0" encoding="UTF-8"?>
<svg id="lowercase" xmlns="http://www.w3.org/2000/svg" version="1.1" viewBox="0 0 478 414.28">
  <!-- Generator: Adobe Illustrator 30.2.1, SVG Export Plug-In . SVG Version: 2.1.1 Build 1)  -->
  <defs>
    <style>
      .st0 {
        fill: #231f20;
      }
    </style>
  </defs>
  <g>
    <path class="st0" d="M112.37,285.78c.12.02.18.1.18.18-.12.54-.37,1.18-.77,1.64l-4.08.54c-.55.08-.59.12-.71.56l-.2.72c-.06.22.02.32.39.38l1.38.24c1.56.28,4.41,1.12,4.41,4.26,0,3.58-4.21,5.8-7.38,5.92-.24-.12-.32-.48-.14-.68,2.78-.34,5.59-1.76,5.59-4.52s-2.85-3.44-5.04-3.5c-.41-.02-.47-.1-.33-.62l1.06-3.9c.08-.32.2-.5.51-.54l5.12-.68Z"/>
    <path class="st0" d="M120.62,293.54c0-.9.02-1.08-.49-1.42l-.24-.16c-.08-.12-.08-.36.02-.46.79-.22,1.97-.78,2.56-1.18.16,0,.28.08.31.2-.06.36-.1.6-.1.78,0,.12.06.24.16.26.26-.12,1.42-.86,2.44-.86,2.15,0,3.39,1.64,3.39,3.7,0,2.78-1.93,4.74-4.82,4.74-.24,0-.69-.04-.87-.08-.18.04-.3.16-.3.56v1.96c0,1.48.08,1.7.77,1.78l.71.08c.14.14.12.5-.04.58-1.02-.04-1.79-.06-2.52-.06-.65,0-1.42.02-2.21.06-.16-.08-.18-.44-.04-.58l.51-.06c.67-.08.75-.32.75-1.8v-8.04ZM122.69,296.67c0,.62.22.92.63,1.28.26.22.75.4,1.04.4,1.36,0,2.11-1.44,2.11-3.28s-.96-3.2-2.5-3.2c-.45,0-.83.16-1.06.4-.16.18-.22.52-.22,1.36v3.04Z"/>
    <path class="st0" d="M138.35,294.83c0,2.84-1.97,4.32-4.31,4.32s-4.15-1.46-4.15-4.08,2.01-4.36,4.31-4.36,4.15,1.52,4.15,4.12ZM134.28,298.35c1.36,0,1.75-1.64,1.75-3.18,0-1.68-.57-3.66-2.03-3.66-1,0-1.79,1.04-1.79,3.26,0,1.82.65,3.58,2.07,3.58Z"/>
    <path class="st0" d="M142.76,296.49c0,1.48.08,1.68.75,1.8l.35.06c.14.14.12.5-.04.58-.73-.04-1.4-.06-2.13-.06-.65,0-1.32.02-2.07.06-.16-.08-.18-.44-.04-.58l.35-.06c.67-.12.75-.32.75-1.8v-2.94c0-.9,0-1.14-.49-1.44l-.24-.14c-.06-.08-.06-.36.02-.46,1.02-.3,2.01-.74,2.56-1.08.12.02.22.06.28.16-.04.66-.06,1.62-.06,2.44v3.46ZM140.52,287.66c0-.68.49-1.2,1.2-1.2s1.2.52,1.2,1.2-.49,1.2-1.2,1.2-1.2-.52-1.2-1.2Z"/>
    <path class="st0" d="M148.04,296.49c0,1.48.08,1.72.75,1.82l.29.04c.14.14.12.5-.04.58-.69-.04-1.36-.06-2.09-.06-.63,0-1.3.02-2.13.06-.16-.08-.18-.44-.04-.58l.43-.06c.67-.1.75-.32.75-1.8v-2.94c0-.9,0-1.14-.49-1.44l-.24-.14c-.06-.08-.06-.36.02-.46.85-.24,1.93-.72,2.56-1.08.14,0,.22.08.26.16-.04.38-.04.76-.04.92,0,.14.06.18.18.2.92-.52,1.48-1,2.7-1,1.59,0,2.34,1.12,2.34,2.68v3.1c0,1.48.08,1.72.75,1.8l.45.06c.14.14.12.5-.04.58-.83-.04-1.5-.06-2.22-.06-.65,0-1.32.02-2.01.06-.16-.08-.18-.44-.04-.58l.29-.04c.67-.1.75-.34.75-1.82v-2.76c0-1.02-.39-1.82-1.57-1.82-.61,0-1.1.32-1.3.62-.26.36-.28.54-.28,1.28v2.68Z"/>
    <path class="st0" d="M158.83,291.86c-.35,0-.37.04-.37.68v3.08c0,1.26.18,2.38,1.44,2.38.39,0,.63-.14.94-.36.18.02.3.18.26.4-.39.56-1.3,1.1-2.5,1.1-1.87,0-2.21-1.1-2.21-2.5v-4.06c0-.7-.04-.72-.35-.72h-.69c-.2-.1-.24-.42-.06-.54.67-.26,1.12-.52,1.56-.84.37-.28.81-.7,1.08-1.24.18-.12.45-.06.55.1v1.2c0,.32,0,.38.37.38h1.95c.12.06.16.22.16.42-.02.24-.1.42-.26.52h-1.87Z"/>
    <path class="st0" d="M162.01,298.51c-.2-.38-.32-1.4-.28-2.26.12-.16.41-.18.55-.04.35,1.12,1.08,2.18,2.13,2.18.61,0,1.1-.42,1.1-1.12,0-.74-.65-1.22-1.34-1.56-1.02-.5-2.09-1.24-2.09-2.52-.02-1.56,1.3-2.48,2.93-2.48.81,0,1.55.24,1.83.4.2.42.29,1.04.29,1.94-.06.16-.39.22-.53.1-.29-.92-.92-1.68-1.69-1.68-.63,0-1.1.46-1.1,1.04s.57,1,1.32,1.36c1.06.52,2.18,1.2,2.18,2.78,0,1.74-1.52,2.5-3.07,2.5-.81,0-1.61-.16-2.24-.64Z"/>
  </g>
  <g>
    <path class="st0" d="M325.21,299.15c-2.91,0-4.45-2.24-4.45-5.1,0-1.66.51-4.12,2.62-6.22,1.99-1.98,4.65-2.66,6.04-2.82.14.08.18.38.08.54-1.26.44-3.01,1.1-4.27,2.5-1.5,1.66-2.05,3.94-2.09,5.7-.06,2.48.75,4.6,2.3,4.6,1.32,0,1.85-1.24,1.85-2.54,0-1.94-.83-3.64-2.26-3.64-.28,0-.43.04-.65.12-.14-.04-.2-.24-.14-.4.59-.52,1.38-.76,2.09-.76,1.87,0,3.19,1.56,3.13,3.8-.06,2.52-1.81,4.22-4.25,4.22Z"/>
    <path class="st0" d="M336.35,293.54c0-.9.02-1.08-.49-1.42l-.24-.16c-.08-.12-.08-.36.02-.46.79-.22,1.97-.78,2.56-1.18.16,0,.28.08.31.2-.06.36-.1.6-.1.78,0,.12.06.24.16.26.26-.12,1.42-.86,2.44-.86,2.15,0,3.39,1.64,3.39,3.7,0,2.78-1.93,4.74-4.82,4.74-.24,0-.69-.04-.87-.08-.18.04-.3.16-.3.56v1.96c0,1.48.08,1.7.77,1.78l.71.08c.14.14.12.5-.04.58-1.02-.04-1.79-.06-2.52-.06-.65,0-1.42.02-2.21.06-.16-.08-.18-.44-.04-.58l.51-.06c.67-.08.75-.32.75-1.8v-8.04ZM338.42,296.67c0,.62.22.92.63,1.28.26.22.75.4,1.04.4,1.36,0,2.11-1.44,2.11-3.28s-.96-3.2-2.5-3.2c-.45,0-.83.16-1.06.4-.16.18-.22.52-.22,1.36v3.04Z"/>
    <path class="st0" d="M354.09,294.83c0,2.84-1.97,4.32-4.31,4.32s-4.15-1.46-4.15-4.08,2.01-4.36,4.31-4.36,4.15,1.52,4.15,4.12ZM350.01,298.35c1.36,0,1.75-1.64,1.75-3.18,0-1.68-.57-3.66-2.03-3.66-1,0-1.79,1.04-1.79,3.26,0,1.82.65,3.58,2.07,3.58Z"/>
    <path class="st0" d="M358.5,296.49c0,1.48.08,1.68.75,1.8l.35.06c.14.14.12.5-.04.58-.73-.04-1.4-.06-2.13-.06-.65,0-1.32.02-2.07.06-.16-.08-.18-.44-.04-.58l.35-.06c.67-.12.75-.32.75-1.8v-2.94c0-.9,0-1.14-.49-1.44l-.24-.14c-.06-.08-.06-.36.02-.46,1.02-.3,2.01-.74,2.56-1.08.12.02.22.06.28.16-.04.66-.06,1.62-.06,2.44v3.46ZM356.25,287.66c0-.68.49-1.2,1.2-1.2s1.2.52,1.2,1.2-.49,1.2-1.2,1.2-1.2-.52-1.2-1.2Z"/>
    <path class="st0" d="M363.77,296.49c0,1.48.08,1.72.75,1.82l.29.04c.14.14.12.5-.04.58-.69-.04-1.36-.06-2.09-.06-.63,0-1.3.02-2.13.06-.16-.08-.18-.44-.04-.58l.43-.06c.67-.1.75-.32.75-1.8v-2.94c0-.9,0-1.14-.49-1.44l-.24-.14c-.06-.08-.06-.36.02-.46.85-.24,1.93-.72,2.56-1.08.14,0,.22.08.26.16-.04.38-.04.76-.04.92,0,.14.06.18.18.2.92-.52,1.48-1,2.7-1,1.59,0,2.34,1.12,2.34,2.68v3.1c0,1.48.08,1.72.75,1.8l.45.06c.14.14.12.5-.04.58-.83-.04-1.5-.06-2.22-.06-.65,0-1.32.02-2.01.06-.16-.08-.18-.44-.04-.58l.29-.04c.67-.1.75-.34.75-1.82v-2.76c0-1.02-.39-1.82-1.57-1.82-.61,0-1.1.32-1.3.62-.26.36-.28.54-.28,1.28v2.68Z"/>
    <path class="st0" d="M374.56,291.86c-.35,0-.37.04-.37.68v3.08c0,1.26.18,2.38,1.44,2.38.39,0,.63-.14.94-.36.18.02.3.18.26.4-.39.56-1.3,1.1-2.5,1.1-1.87,0-2.21-1.1-2.21-2.5v-4.06c0-.7-.04-.72-.35-.72h-.69c-.2-.1-.24-.42-.06-.54.67-.26,1.12-.52,1.56-.84.37-.28.81-.7,1.08-1.24.18-.12.45-.06.55.1v1.2c0,.32,0,.38.37.38h1.95c.12.06.16.22.16.42-.02.24-.1.42-.26.52h-1.87Z"/>
    <path class="st0" d="M377.75,298.51c-.2-.38-.32-1.4-.28-2.26.12-.16.41-.18.55-.04.35,1.12,1.08,2.18,2.13,2.18.61,0,1.1-.42,1.1-1.12,0-.74-.65-1.22-1.34-1.56-1.02-.5-2.09-1.24-2.09-2.52-.02-1.56,1.3-2.48,2.93-2.48.81,0,1.55.24,1.83.4.2.42.29,1.04.29,1.94-.06.16-.39.22-.53.1-.29-.92-.92-1.68-1.69-1.68-.63,0-1.1.46-1.1,1.04s.57,1,1.32,1.36c1.06.52,2.18,1.2,2.18,2.78,0,1.74-1.52,2.5-3.07,2.5-.81,0-1.61-.16-2.24-.64Z"/>
  </g>
  <path class="st0" d="M403.6,215.94l-12.22,20.64-33.67-24.17,4.34,41.55h-23.9l4.07-41.82-33.94,24.44-12.22-20.64,38.02-17.11-37.75-17.11,12.22-20.64,33.67,24.71-4.07-41.55h23.9l-4.34,41,33.4-24.17,12.22,20.64-38.56,17.11,38.83,17.11Z"/>
  <path class="st0" d="M116.04,234.94l-18.19-12.49,28.78-38.56-44.81-9.5,5.43-20.37,44.26,14.12-1.9-44.53h22.27l-1.9,44.53,43.99-14.12,5.7,20.37-44.8,9.5,28.78,38.56-18.19,12.49-24.71-40.73-24.71,40.73Z"/>
</svg>