<?xml version="1.0" encoding="UTF-8"?>
<svg id="lowercase" xmlns="http://www.w3.org/2000/svg" version="1.1" viewBox="0 0 478 414.28">
  <!-- Generator: Adobe Illustrator 30.2.1, SVG Export Plug-In . SVG Version: 2.1.1 Build 1)  -->
  <defs>
    <style>
      .st0 {
        fill: #231f20;
      }

      .st1 {
        fill: #f68c45;
      }

      .st2 {
        fill: #2e6bae;
      }
    </style>
  </defs>
  <path class="st0" d="M320.76,298.48c0,14.96-12.41,27.38-27.38,27.38s-27.38-12.41-27.38-27.38,12.41-27.74,27.38-27.74,27.38,12.78,27.38,27.74ZM312.73,179.85l-7.3,68.26h-24.09l-7.3-68.26v-113.52h38.69v113.52Z"/>
  <path class="st0" d="M163.1,61.23h32.85l-4.38,190.9h-24.09l-4.38-190.9ZM165.29,285.34h29.2v36.5h-29.2v-36.5Z"/>
  <path class="st1" d="M320.76,298.47c0,14.96-12.41,27.38-27.38,27.38s-27.38-12.41-27.38-27.38,12.41-27.74,27.38-27.74,27.38,12.78,27.38,27.74Z"/>
  <path class="st2" d="M165.29,285.34h29.2v36.5h-29.2v-36.5Z"/>
</svg>