<?xml version="1.0" encoding="UTF-8"?>
<svg xmlns="http://www.w3.org/2000/svg" version="1.1" viewBox="0 0 478 414.28">
  <!-- Generator: Adobe Illustrator 30.2.1, SVG Export Plug-In . SVG Version: 2.1.1 Build 1)  -->
  <defs>
    <style>
      .st0 {
        fill: #231f20;
      }

      .st1, .st2, .st3, .st4 {
        fill: none;
        stroke-miterlimit: 10;
      }

      .st1, .st3 {
        stroke: #f68c45;
      }

      .st1, .st4 {
        stroke-width: .86px;
      }

      .st2, .st4 {
        stroke: #2e6bae;
      }
    </style>
  </defs>
  <g id="Layer_1">
    <line class="st2" x1="144.05" y1="209.66" x2="126.61" y2="314.88"/>
    <line class="st3" x1="293.42" y1="195.6" x2="286.73" y2="292.68"/>
  </g>
  <g id="lowercase">
    <path class="st0" d="M361.15,195.62l-27.38,96.73h-25.92l5.48-96.73h47.82Z"/>
    <path class="st0" d="M160.38,210.22h32.85l-24.82,104.76h-25.18l17.16-104.76Z"/>
    <g>
      <path class="st0" d="M143.24,367.61c0,1.56-1.3,2.26-2.18,2.88,1.22.68,2.58,1.82,2.58,3.72,0,2.32-2.01,3.46-4.15,3.46-1.93,0-4-.92-4-3.22,0-1.54,1.2-2.46,2.6-3.26-1.04-.54-2.24-1.64-2.24-3.12,0-2.08,1.63-3.48,3.9-3.48,1.95,0,3.5,1.06,3.5,3.02ZM141.53,374.91c0-1.56-1.1-2.54-2.75-3.36-.93.74-1.4,1.58-1.4,2.82,0,1.5.93,2.5,2.21,2.5,1.06,0,1.95-.76,1.95-1.96ZM137.79,367.43c0,1.38,1.48,2.08,2.58,2.64.73-.6,1.12-1.38,1.12-2.46s-.67-2.22-1.89-2.22-1.81.96-1.81,2.04Z"/>
      <path class="st0" d="M153.83,371.13c0,3.14-1.2,6.54-4.23,6.54s-4.23-3.4-4.23-6.54,1.2-6.54,4.23-6.54,4.23,3.52,4.23,6.54ZM147.69,371.13c0,1.88.2,5.74,1.91,5.74s1.91-3.86,1.91-5.74-.2-5.74-1.91-5.74-1.91,3.86-1.91,5.74Z"/>
      <path class="st0" d="M161.33,367.31c0,1.72-1.26,2.7-2.78,2.7s-2.78-.98-2.78-2.7,1.26-2.72,2.78-2.72,2.78,1.08,2.78,2.72ZM157.04,367.31c0,1.1.61,1.88,1.52,1.88s1.52-.78,1.52-1.88-.61-1.9-1.52-1.9-1.52.78-1.52,1.9Z"/>
    </g>
    <g>
      <path class="st0" d="M320.76,367.61c0,1.56-1.3,2.26-2.18,2.88,1.22.68,2.58,1.82,2.58,3.72,0,2.32-2.01,3.46-4.15,3.46-1.93,0-4-.92-4-3.22,0-1.54,1.2-2.46,2.6-3.26-1.04-.54-2.24-1.64-2.24-3.12,0-2.08,1.63-3.48,3.9-3.48,1.95,0,3.5,1.06,3.5,3.02ZM319.05,374.91c0-1.56-1.1-2.54-2.75-3.36-.93.74-1.4,1.58-1.4,2.82,0,1.5.93,2.5,2.21,2.5,1.06,0,1.95-.76,1.95-1.96ZM315.31,367.43c0,1.38,1.48,2.08,2.58,2.64.73-.6,1.12-1.38,1.12-2.46s-.67-2.22-1.89-2.22-1.81.96-1.81,2.04Z"/>
      <path class="st0" d="M329.11,364.87c1.08,0,2.34,0,2.58-.06.08.04.14.1.14.24-.47.76-1.1,1.82-1.93,3.46l-5.12,10.12c-.33.04-.83-.12-.85-.46l5.04-9.72c.39-.76.65-1.5.65-1.66,0-.1-.12-.2-.45-.2h-4c-.96,0-1.63.1-2.05.92-.14.1-.43.06-.49-.14.3-.94.49-1.8.67-2.56.39.04,1.02.06,2.09.06h3.72Z"/>
      <path class="st0" d="M338.85,367.31c0,1.72-1.26,2.7-2.78,2.7s-2.78-.98-2.78-2.7,1.26-2.72,2.78-2.72,2.78,1.08,2.78,2.72ZM334.56,367.31c0,1.1.61,1.88,1.52,1.88s1.52-.78,1.52-1.88-.61-1.9-1.52-1.9-1.52.78-1.52,1.9Z"/>
    </g>
    <line class="st4" x1="139.15" y1="209.27" x2="149.66" y2="210.41"/>
    <line class="st1" x1="287.59" y1="195.22" x2="299.18" y2="195.98"/>
    <line class="st1" x1="280.92" y1="292.68" x2="292.54" y2="292.68"/>
    <line class="st4" x1="121.33" y1="314.88" x2="131.89" y2="315.43"/>
  </g>
</svg>