<?xml version="1.0" encoding="UTF-8"?>
<svg xmlns="http://www.w3.org/2000/svg" version="1.1" viewBox="0 0 478 414.28">
  <!-- Generator: Adobe Illustrator 30.2.1, SVG Export Plug-In . SVG Version: 2.1.1 Build 1)  -->
  <defs>
    <style>
      .st0 {
        fill: #231f20;
      }

      .st1, .st2, .st3, .st4 {
        fill: none;
        stroke-miterlimit: 10;
      }

      .st1, .st3 {
        stroke: #f68c45;
      }

      .st1, .st4 {
        stroke-width: .86px;
      }

      .st2, .st4 {
        stroke: #2e6bae;
      }
    </style>
  </defs>
  <g id="Layer_1">
    <line class="st2" x1="100.26" y1="63.35" x2="86.86" y2="149.11"/>
    <line class="st3" x1="310.61" y1="69.59" x2="282.84" y2="161.46"/>
  </g>
  <g id="lowercase">
    <path class="st0" d="M353.49,70.34l-5.11,91.62h-47.81l27.74-91.62h25.19ZM439.26,70.34l-5.11,91.62h-47.82l27.74-91.62h25.19Z"/>
    <path class="st0" d="M118.71,63.45h31.03l-20.07,86.87h-24.09l13.14-86.87ZM185.15,63.45h30.66l-19.71,86.87h-24.09l13.14-86.87Z"/>
    <g>
      <path class="st0" d="M52.76,140.25c0,1.56-1.3,2.26-2.18,2.88,1.22.68,2.58,1.82,2.58,3.72,0,2.32-2.01,3.46-4.15,3.46-1.93,0-3.99-.92-3.99-3.22,0-1.54,1.2-2.46,2.6-3.26-1.04-.54-2.24-1.64-2.24-3.12,0-2.08,1.63-3.48,3.9-3.48,1.95,0,3.5,1.06,3.5,3.02ZM51.05,147.55c0-1.56-1.1-2.54-2.75-3.36-.93.74-1.4,1.58-1.4,2.82,0,1.5.93,2.5,2.21,2.5,1.06,0,1.95-.76,1.95-1.96ZM47.31,140.07c0,1.38,1.48,2.08,2.58,2.64.73-.6,1.12-1.38,1.12-2.46s-.67-2.22-1.89-2.22-1.81.96-1.81,2.04Z"/>
      <path class="st0" d="M60.66,148.31c1.42,0,1.75-.16,2.36-1.26.14-.08.41-.04.49.12-.28,1.48-.67,2.52-.96,2.92-.77-.04-1.57-.06-2.48-.06h-3.25c-1.1,0-1.75.02-2.17.06-.12-.08-.18-.2-.12-.36,1.06-.96,1.75-1.58,2.95-2.86,1.5-1.56,2.86-3.5,2.86-5.6,0-1.6-.91-2.76-2.34-2.76-1.12,0-1.81.72-2.42,1.76-.24.04-.47-.06-.51-.3.73-1.76,2.28-2.74,4.11-2.74,2.11,0,3.43,1.44,3.43,3.32,0,1.28-.55,2.56-2.32,4.46l-1.61,1.72c-.85.9-.93,1.16-.93,1.3,0,.16.1.28.61.28h2.3Z"/>
      <path class="st0" d="M70.85,139.95c0,1.72-1.26,2.7-2.78,2.7s-2.78-.98-2.78-2.7,1.26-2.72,2.78-2.72,2.78,1.08,2.78,2.72ZM66.56,139.95c0,1.1.61,1.88,1.52,1.88s1.52-.78,1.52-1.88-.61-1.9-1.52-1.9-1.52.78-1.52,1.9Z"/>
    </g>
    <g>
      <path class="st0" d="M243.54,137.51c1.08,0,2.34,0,2.58-.06.08.04.14.1.14.24-.47.76-1.1,1.82-1.93,3.46l-5.12,10.12c-.33.04-.83-.12-.85-.46l5.04-9.72c.39-.76.65-1.5.65-1.66,0-.1-.12-.2-.45-.2h-4c-.96,0-1.63.1-2.05.92-.14.1-.43.06-.49-.14.3-.94.49-1.8.67-2.56.39.04,1.02.06,2.09.06h3.72Z"/>
      <path class="st0" d="M254.66,146.25c-.47,0-.49.04-.49.5v.9c0,1.42.08,1.72.75,1.8l.49.06c.14.1.12.5-.04.58-.88-.04-1.55-.06-2.28-.06-1.04,0-1.81.02-2.64.06-.16-.08-.18-.44-.04-.58l.95-.12c.67-.08.75-.36.75-1.74v-.84c0-.56-.02-.56-.47-.56h-4.51c-.21-.06-.35-.34-.29-.56l6.55-9.52c.12-.16.24-.24.43-.26h.53c.29,0,.43.12.24.38l-6.12,8.62c-.24.34.04.44.63.44h2.46c.53,0,.55-.02.55-.54v-3.3c0-.3.02-.42.24-.54.2-.12,1.24-.5,1.54-.5s.29.22.29.62v3.78c0,.46,0,.48.49.48h1.22c.2.16.22.74,0,.9h-1.22Z"/>
      <path class="st0" d="M263.33,139.95c0,1.72-1.26,2.7-2.78,2.7s-2.78-.98-2.78-2.7,1.26-2.72,2.78-2.72,2.78,1.08,2.78,2.72ZM259.03,139.95c0,1.1.61,1.88,1.52,1.88s1.52-.78,1.52-1.88-.61-1.9-1.52-1.9-1.52.78-1.52,1.9Z"/>
    </g>
    <line class="st4" x1="94.93" y1="63.35" x2="105.5" y2="63.87"/>
    <line class="st1" x1="305.32" y1="69.59" x2="315.89" y2="70.11"/>
    <line class="st1" x1="277.56" y1="161.59" x2="288.13" y2="161.59"/>
    <line class="st4" x1="81.57" y1="149.08" x2="92.14" y2="149.6"/>
  </g>
</svg>