<?xml version="1.0" encoding="UTF-8"?>
<svg id="lowercase" xmlns="http://www.w3.org/2000/svg" version="1.1" viewBox="0 0 478 414.28">
  <!-- Generator: Adobe Illustrator 30.2.1, SVG Export Plug-In . SVG Version: 2.1.1 Build 1)  -->
  <defs>
    <style>
      .st0 {
        fill: #231f20;
      }

      .st1 {
        fill: #f68c45;
      }

      .st2 {
        fill: #2e6bae;
      }
    </style>
  </defs>
  <path class="st2" d="M76.08,145.42c12.5,39.67,25,79.34,37.5,119.02,12.47-34.52,28.91-56.96,41.85-71.19,18.62-20.49,33.49-27.87,37.5-47.82,3.59-17.88-3.05-38.4-16.85-51.08-25.14-23.12-70.76-17.17-90.21,9.24-11.72,15.91-10.6,34.7-9.78,41.85Z"/>
  <path class="st1" d="M290.66,141.25c12.53,39.78,25.06,79.56,37.59,119.34,16.07-31.92,33.72-53.48,46.97-67.34,19.53-20.42,33.61-28.46,37.5-47.82,3.59-17.88-3.05-38.4-16.85-51.08-24.82-22.82-68.91-15.04-90.21,9.24-11.99,13.66-14.39,29.84-14.99,37.67Z"/>
  <path class="st0" d="M442.5,142.7c0,35.41-16.43,51.1-47.09,68.26-23.73,13.14-27.38,21.9-27.38,49.64h-39.79c0-42.71,7.67-57.31,48.18-79.57,18.62-10.22,27.01-18.62,27.01-36.13,0-20.44-17.89-32.12-49.28-32.12-27.01,0-45.26,10.95-63.51,28.47l-24.46-28.84c20.81-20.8,51.1-37.59,89.06-37.59,51.83,0,87.24,23.36,87.24,67.89ZM375.33,310.97c0,14.96-12.41,27.38-27.38,27.38s-27.38-12.41-27.38-27.38,12.41-27.74,27.38-27.74,27.38,12.78,27.38,27.74Z"/>
  <path class="st0" d="M113.04,252.2c-.37-28.47,6.57-41.25,34.31-64.97,12.04-10.58,16.79-15.33,20.8-20.8,6.21-8.4,10.22-19.71,10.22-29.2,0-24.46-19.35-41.61-46.72-41.61-17.89,0-32.12,6.94-41.98,20.08-5.84,8.03-8.03,13.51-12.41,31.03l-28.11-4.74c9.85-48.55,36.87-71.91,83.22-71.91s76.29,27.01,76.29,68.26c0,18.25-6.57,33.95-19.71,48.55-5.84,5.84-7.67,7.67-29.57,26.28-16.06,14.24-22.63,26.28-22.27,41.61v10.22h-24.09v-12.78ZM110.85,297.83h29.2v36.5h-29.2v-36.5Z"/>
</svg>