<?xml version="1.0" encoding="UTF-8"?>
<svg id="lowercase" xmlns="http://www.w3.org/2000/svg" version="1.1" viewBox="0 0 478 414.28">
  <!-- Generator: Adobe Illustrator 30.2.1, SVG Export Plug-In . SVG Version: 2.1.1 Build 1)  -->
  <defs>
    <style>
      .st0 {
        fill: #231f20;
      }

      .st1 {
        fill: #f68c45;
      }

      .st2 {
        fill: #2e6bae;
      }
    </style>
  </defs>
  <g>
    <path class="st0" d="M345.02,299.61l-14.12,12.22c-27.15-25.8-52.95-62.18-52.95-111.33s25.25-86.62,52.95-112.96l14.12,12.22c-24.17,26.88-37.47,58.11-37.47,99.39,0,44.53,14.39,74.4,37.47,100.47Z"/>
    <path class="st0" d="M438.15,198.6c0,50.78-25.25,86.62-52.95,112.96l-14.12-12.22c24.17-26.88,37.47-58.11,37.47-99.39,0-44.53-14.39-74.4-37.47-100.47l14.12-12.22c27.16,25.8,52.95,62.18,52.95,111.33Z"/>
  </g>
  <g>
    <path class="st0" d="M89.75,314.82c-29.6-42.9-41.55-79.29-41.55-126.54s11.95-83.64,41.55-126.27l16.02,10.05c-8.69,15.21-14.66,26.61-20.09,39.1-9.23,21.45-14.94,50.24-14.94,77.39,0,29.06,5.97,57.3,17.11,81.74,5.16,11.13,10.05,20.91,17.92,34.49l-16.02,10.05Z"/>
    <path class="st0" d="M165.23,62.01c29.6,42.63,41.55,79.29,41.55,126.27s-11.95,83.91-41.55,126.54l-16.02-10.05c8.69-14.94,14.39-26.34,20.09-39.1,9.23-21.45,14.93-50.24,14.93-77.39,0-29.06-5.97-57.3-17.11-81.74-5.16-11.4-10.32-21.18-17.92-34.49l16.02-10.05Z"/>
  </g>
  <path class="st2" d="M75.27,230.99c-2.98-13.95-4.53-28.5-4.53-43.27,0-8.75.6-17.66,1.71-26.45h-22.88c-.92,8.41-1.37,17.09-1.37,26.17,0,15.48,1.29,29.78,4.06,43.54h23.01Z"/>
  <path class="st2" d="M179.68,230.99h23.06c2.76-13.77,4.04-28.09,4.04-43.54,0-9.07-.45-17.76-1.38-26.17h-22.79c1.08,8.59,1.64,17.35,1.64,26.17,0,14.51-1.64,29.47-4.56,43.54Z"/>
  <path class="st1" d="M310.51,230.99c-1.94-9.99-2.97-20.81-2.97-32.68,0-13.33,1.4-25.61,4.09-37.04h-28.48c-3.31,11.76-5.2,24.51-5.2,38.39,0,11.08,1.32,21.51,3.67,31.32h28.9Z"/>
  <path class="st1" d="M405.59,230.99h28.7c2.47-10.31,3.86-21.35,3.86-33.22,0-13.05-1.83-25.2-5.02-36.49h-28.64c2.65,11.4,4.06,23.91,4.06,37.85,0,11.34-1.01,21.92-2.97,31.86Z"/>
</svg>