<?xml version="1.0" encoding="UTF-8"?>
<svg xmlns="http://www.w3.org/2000/svg" version="1.1" viewBox="0 0 478 414.28">
  <!-- Generator: Adobe Illustrator 30.2.1, SVG Export Plug-In . SVG Version: 2.1.1 Build 1)  -->
  <defs>
    <style>
      .st0 {
        fill: #231f20;
      }

      .st1 {
        fill: #f68c45;
      }

      .st2 {
        fill: #2e6bae;
      }
    </style>
  </defs>
  <g id="Layer_1">
    <circle class="st2" cx="136.24" cy="281.82" r="42.25"/>
  </g>
  <g id="lowercase">
    <g>
      <ellipse class="st1" cx="316.54" cy="281.41" rx="38.06" ry="42.66"/>
      <path class="st0" d="M405.55,324.07h-28.63l-13.12-15.51c-12.41,10.98-28.16,18.13-47.01,18.13-35.55,0-52.5-18.37-52.5-45.34,0-22.67,11.93-36.27,35.08-49.39l-3.1-3.82c-10.98-13.6-15.75-22.91-15.75-35.32,0-24.1,17.9-38.42,46.29-38.42,15.51,0,30.3,5.49,44.86,15.75l-11.69,20.04c-12.89-9.31-22.43-12.65-35.32-12.65s-19.09,5.49-19.09,14.79c0,6.92,1.67,11.45,8.59,20.04l48.92,59.89c5.01-8.59,8.83-18.37,11.45-27.68l22.67,6.44c-3.58,13.6-9.54,27.92-18.13,40.33l26.49,32.69ZM349,290.9l-35.32-42c-15.75,8.83-24.34,17.66-24.34,31.26s9.07,23.62,28.4,23.62c12.41,0,22.91-5.01,31.26-12.89Z"/>
    </g>
    <path class="st0" d="M187.18,305.93c-15.27,15.51-38.18,25.53-59.18,25.53-29.11,0-46.77-16.46-46.77-43.91,0-15.99,7.63-30.07,22.43-41.76,5.73-4.53,12.17-8.59,24.1-15.27-18.13-24.1-22.19-32.21-22.19-43.91,0-22.43,17.18-37.46,42.71-37.46s44.14,15.27,44.14,38.18c0,18.13-10.26,31.5-36.99,48.68l33.65,44.62c8.35-10.98,13.84-22.43,16.94-34.84h18.85c-5.49,19.09-13.12,34.12-24.58,48.2l23.86,30.07h-23.15l-13.84-18.13ZM139.7,244.61c-9.07,5.01-16.46,9.31-21.24,12.88-11.21,7.87-17.42,18.37-17.42,29.83,0,17.18,11.45,27.44,30.07,27.44,15.99,0,30.07-6.68,45.34-21.48l-36.75-48.68ZM173.58,187.82c0-13.84-9.78-22.91-24.58-22.91s-24.58,8.83-24.58,21.71c0,8.11,4.06,15.27,19.57,35.55,21-11.69,29.59-21.71,29.59-34.36Z"/>
  </g>
</svg>