<?xml version="1.0" encoding="UTF-8"?>
<svg id="Layer_1" data-name="Layer 1" xmlns="http://www.w3.org/2000/svg" viewBox="0 0 246.8 41.45">
  <defs>
    <style>
      .cls-1 {
        fill: #71351b;
      }

      .cls-2 {
        fill: #844f32;
      }

      .cls-3 {
        fill: #96664b;
      }
    </style>
  </defs>
  <path class="cls-1" d="M74.6,11.71c0,2.28-1.07,4.42-2.49,5.94,3.6,1.62,5.99,5.33,5.99,9.39,0,5.73-4.72,10.45-10.45,10.45h-17.81V2.48h15.53c5.08,0,9.24,4.16,9.24,9.24ZM71.25,26.69c0-2.33-1.93-4.26-4.26-4.26h-7.56c-2.33,0-4.26,1.93-4.26,4.26s1.93,4.26,4.26,4.26h7.56c2.33,0,4.26-1.93,4.26-4.26ZM67.75,12.12c0-1.57-1.32-2.89-2.89-2.89h-8.12v5.79h8.12c1.57,0,2.89-1.32,2.89-2.89Z"/>
  <path class="cls-1" d="M102.67,24.4c0,7.21-5.89,13.09-13.09,13.09s-13.09-5.89-13.09-13.09,5.89-13.09,13.09-13.09,13.09,5.89,13.09,13.09ZM89.58,31.25c3.81,0,6.9-3.05,6.9-6.85s-3.1-6.9-6.9-6.9-6.9,3.1-6.9,6.9,3.1,6.85,6.9,6.85Z"/>
  <path class="cls-1" d="M107.83,13.14s2.69-1.83,6.65-1.83c7.21,0,13.09,5.89,13.09,13.09s-5.89,13.09-13.09,13.09c-4.01,0-6.65-1.83-6.65-1.83v1.83h-6.9V2.48h6.9v10.66ZM114.48,31.25c3.81,0,6.9-3.05,6.9-6.85s-3.1-6.9-6.9-6.9-6.9,3.1-6.9,6.9,3.1,6.85,6.9,6.85Z"/>
  <path class="cls-1" d="M149.9,9.79c1.88,0,3.45,1.57,3.45,3.45v24.26h-6.9v-1.93s-2.64,1.93-6.8,1.93c-7.21,0-13.09-5.89-13.09-13.09s5.89-13.09,13.09-13.09c4.06,0,6.8,1.93,6.8,1.93,0-1.93,1.57-3.45,3.45-3.45ZM139.65,31.25c3.81,0,6.9-3.05,6.9-6.85s-3.1-6.9-6.9-6.9-6.9,3.1-6.9,6.9,3.1,6.85,6.9,6.85Z"/>
  <path class="cls-1" d="M185.96,11.71c0,2.28-1.07,4.42-2.49,5.94,3.6,1.62,5.99,5.33,5.99,9.39,0,5.73-4.72,10.45-10.45,10.45h-17.81V2.48h15.53c5.08,0,9.24,4.16,9.24,9.24ZM182.61,26.69c0-2.33-1.93-4.26-4.26-4.26h-7.56c-2.33,0-4.26,1.93-4.26,4.26s1.93,4.26,4.26,4.26h7.56c2.33,0,4.26-1.93,4.26-4.26ZM179.11,12.12c0-1.57-1.32-2.89-2.89-2.89h-8.12v5.79h8.12c1.57,0,2.89-1.32,2.89-2.89Z"/>
  <path class="cls-1" d="M188.03,32.88V5.32l6.9-3.55v35.93h-1.67c-4.36,0-5.23-2.49-5.23-4.82Z"/>
  <path class="cls-1" d="M196.96,37.7V14.96c0-1.88,1.57-3.45,3.45-3.45s3.45,1.57,3.45,3.45v22.74h-6.9ZM202.24,6.33c0,1.01-.81,1.78-1.83,1.78s-1.83-.76-1.83-1.78.81-1.83,1.83-1.83,1.83.81,1.83,1.83Z"/>
  <path class="cls-1" d="M217.67,22.12c3.76.96,8.83,1.98,8.83,7.87,0,6.24-5.07,8.22-10.96,8.22-6.5,0-10.15-3.55-11.06-4.87-.25-.35-.51-.81-.51-1.57,0-1.52,1.22-2.74,2.74-2.74,1.17,0,1.88.71,2.08.91,1.47,1.47,3.65,3.04,6.75,3.04,3.25,0,4.52-.96,4.52-2.64,0-2.03-4.21-2.64-7.87-3.45-2.79-.61-7.16-2.54-7.16-7.76s5.28-7.97,10.51-7.97c4.87,0,8.42,2.13,10.05,3.4l-2.89,4.82c-2.03-1.78-4.62-2.74-7.16-2.74-1.83,0-3.55.46-3.55,2.44,0,1.83,4.52,2.74,5.68,3.04Z"/>
  <path class="cls-1" d="M237.97,22.12c3.76.96,8.83,1.98,8.83,7.87,0,6.24-5.07,8.22-10.96,8.22-6.5,0-10.15-3.55-11.06-4.87-.25-.35-.51-.81-.51-1.57,0-1.52,1.22-2.74,2.74-2.74,1.17,0,1.88.71,2.08.91,1.47,1.47,3.65,3.04,6.75,3.04,3.25,0,4.52-.96,4.52-2.64,0-2.03-4.21-2.64-7.87-3.45-2.79-.61-7.16-2.54-7.16-7.76s5.28-7.97,10.51-7.97c4.87,0,8.42,2.13,10.05,3.4l-2.89,4.82c-2.03-1.78-4.62-2.74-7.16-2.74-1.83,0-3.55.46-3.55,2.44,0,1.83,4.52,2.74,5.68,3.04Z"/>
  <circle class="cls-1" cx="19.63" cy="12.27" r="12.27"/>
  <path class="cls-3" d="M20.84,2.37s-4.46-.48-4.34,3.05,7.78,2.49,8.27,4.67,3.99,1.98,4.66,0-1.22-6.8-8.59-7.71Z"/>
  <path class="cls-2" d="M7.36,13.23s8.03,9.24,18.49,9.61c.02.55-15.53,7.09-18.49-9.61Z"/>
  <circle class="cls-1" cx="33.38" cy="26.89" r="12.27"/>
  <path class="cls-3" d="M42.57,30.79s1.69-4.16-1.73-5.01-4.54,6.78-6.77,6.66-3,3.29-1.29,4.47,6.87.7,9.79-6.13Z"/>
  <path class="cls-2" d="M35.85,14.83s-11.1,5.16-14.35,15.12c-.54-.13-2.52-16.88,14.35-15.12Z"/>
  <circle class="cls-1" cx="12.27" cy="29.18" r="12.27"/>
  <path class="cls-3" d="M4.84,35.83s3.04,3.3,5.27.57-4.21-7-3.15-8.96-1.7-4.12-3.5-3.07-3.56,5.92,1.38,11.46Z"/>
  <path class="cls-2" d="M22.14,36.54s.05-12.24-7.58-19.42c.34-.43,16.35,4.9,7.58,19.42Z"/>
</svg>